<svg xmlns="http://www.w3.org/2000/svg" xmlns:xlink="http://www.w3.org/1999/xlink" contentStyleType="text/css" height="375px" preserveAspectRatio="none" style="width:1521px;height:375px;background:#FFFFFF;" version="1.1" viewBox="0 0 1521 375" width="1521px" zoomAndPan="magnify"><defs/><g><!--class IArrayElementMissingException--><g id="elem_IArrayElementMissingException"><rect codeLine="5" fill="#FFFFFF" height="44" id="IArrayElementMissingException" rx="2.5" ry="2.5" style="stroke:#000000;stroke-width:1.0;" width="249.3955" x="12" y="12"/><ellipse cx="25" cy="26" fill="#FFFFFF" rx="9" ry="9" style="stroke:#000000;stroke-width:1.0;"/><path d="M27.9688,31.6406 Q27.3906,31.9375 26.75,32.0781 Q26.1094,32.2344 25.4063,32.2344 Q22.9063,32.2344 21.5781,30.5938 Q20.2656,28.9375 20.2656,25.8125 Q20.2656,22.6875 21.5781,21.0313 Q22.9063,19.375 25.4063,19.375 Q26.1094,19.375 26.75,19.5313 Q27.4063,19.6875 27.9688,19.9844 L27.9688,22.7031 Q27.3438,22.125 26.75,21.8594 Q26.1563,21.5781 25.5313,21.5781 Q24.1875,21.5781 23.5,22.6563 Q22.8125,23.7188 22.8125,25.8125 Q22.8125,27.9063 23.5,28.9844 Q24.1875,30.0469 25.5313,30.0469 Q26.1563,30.0469 26.75,29.7813 Q27.3438,29.5 27.9688,28.9219 L27.9688,31.6406 Z " fill="#000000"/><text fill="#000000" font-family="Verdana" font-size="14" lengthAdjust="spacing" textLength="221.3955" x="37" y="30.8467">IArrayElementMissingException</text><line style="stroke:#000000;stroke-width:1.0;" x1="13" x2="260.3955" y1="40" y2="40"/><line style="stroke:#000000;stroke-width:1.0;" x1="13" x2="260.3955" y1="48" y2="48"/></g><!--class IConnectionFailedException--><g id="elem_IConnectionFailedException"><rect codeLine="6" fill="#FFFFFF" height="44" id="IConnectionFailedException" rx="2.5" ry="2.5" style="stroke:#000000;stroke-width:1.0;" width="222.4004" x="296.5" y="12"/><ellipse cx="309.5" cy="26" fill="#FFFFFF" rx="9" ry="9" style="stroke:#000000;stroke-width:1.0;"/><path d="M312.4688,31.6406 Q311.8906,31.9375 311.25,32.0781 Q310.6094,32.2344 309.9063,32.2344 Q307.4063,32.2344 306.0781,30.5938 Q304.7656,28.9375 304.7656,25.8125 Q304.7656,22.6875 306.0781,21.0313 Q307.4063,19.375 309.9063,19.375 Q310.6094,19.375 311.25,19.5313 Q311.9063,19.6875 312.4688,19.9844 L312.4688,22.7031 Q311.8438,22.125 311.25,21.8594 Q310.6563,21.5781 310.0313,21.5781 Q308.6875,21.5781 308,22.6563 Q307.3125,23.7188 307.3125,25.8125 Q307.3125,27.9063 308,28.9844 Q308.6875,30.0469 310.0313,30.0469 Q310.6563,30.0469 311.25,29.7813 Q311.8438,29.5 312.4688,28.9219 L312.4688,31.6406 Z " fill="#000000"/><text fill="#000000" font-family="Verdana" font-size="14" lengthAdjust="spacing" textLength="194.4004" x="321.5" y="30.8467">IConnectionFailedException</text><line style="stroke:#000000;stroke-width:1.0;" x1="297.5" x2="517.9004" y1="40" y2="40"/><line style="stroke:#000000;stroke-width:1.0;" x1="297.5" x2="517.9004" y1="48" y2="48"/></g><!--class IFunctionCallException--><g id="elem_IFunctionCallException"><rect codeLine="7" fill="#FFFFFF" height="44" id="IFunctionCallException" rx="2.5" ry="2.5" style="stroke:#000000;stroke-width:1.0;" width="187.7217" x="553.84" y="12"/><ellipse cx="566.84" cy="26" fill="#FFFFFF" rx="9" ry="9" style="stroke:#000000;stroke-width:1.0;"/><path d="M569.8088,31.6406 Q569.2306,31.9375 568.59,32.0781 Q567.9494,32.2344 567.2463,32.2344 Q564.7463,32.2344 563.4181,30.5938 Q562.1056,28.9375 562.1056,25.8125 Q562.1056,22.6875 563.4181,21.0313 Q564.7463,19.375 567.2463,19.375 Q567.9494,19.375 568.59,19.5313 Q569.2463,19.6875 569.8088,19.9844 L569.8088,22.7031 Q569.1838,22.125 568.59,21.8594 Q567.9963,21.5781 567.3713,21.5781 Q566.0275,21.5781 565.34,22.6563 Q564.6525,23.7188 564.6525,25.8125 Q564.6525,27.9063 565.34,28.9844 Q566.0275,30.0469 567.3713,30.0469 Q567.9963,30.0469 568.59,29.7813 Q569.1838,29.5 569.8088,28.9219 L569.8088,31.6406 Z " fill="#000000"/><text fill="#000000" font-family="Verdana" font-size="14" lengthAdjust="spacing" textLength="159.7217" x="578.84" y="30.8467">IFunctionCallException</text><line style="stroke:#000000;stroke-width:1.0;" x1="554.84" x2="740.5617" y1="40" y2="40"/><line style="stroke:#000000;stroke-width:1.0;" x1="554.84" x2="740.5617" y1="48" y2="48"/></g><!--class IIncompleteConfigException--><g id="elem_IIncompleteConfigException"><rect codeLine="8" fill="#FFFFFF" height="44" id="IIncompleteConfigException" rx="2.5" ry="2.5" style="stroke:#000000;stroke-width:1.0;" width="224.5879" x="776.4" y="12"/><ellipse cx="789.4" cy="26" fill="#FFFFFF" rx="9" ry="9" style="stroke:#000000;stroke-width:1.0;"/><path d="M792.3688,31.6406 Q791.7906,31.9375 791.15,32.0781 Q790.5094,32.2344 789.8063,32.2344 Q787.3063,32.2344 785.9781,30.5938 Q784.6656,28.9375 784.6656,25.8125 Q784.6656,22.6875 785.9781,21.0313 Q787.3063,19.375 789.8063,19.375 Q790.5094,19.375 791.15,19.5313 Q791.8063,19.6875 792.3688,19.9844 L792.3688,22.7031 Q791.7438,22.125 791.15,21.8594 Q790.5563,21.5781 789.9313,21.5781 Q788.5875,21.5781 787.9,22.6563 Q787.2125,23.7188 787.2125,25.8125 Q787.2125,27.9063 787.9,28.9844 Q788.5875,30.0469 789.9313,30.0469 Q790.5563,30.0469 791.15,29.7813 Q791.7438,29.5 792.3688,28.9219 L792.3688,31.6406 Z " fill="#000000"/><text fill="#000000" font-family="Verdana" font-size="14" lengthAdjust="spacing" textLength="196.5879" x="801.4" y="30.8467">IIncompleteConfigException</text><line style="stroke:#000000;stroke-width:1.0;" x1="777.4" x2="999.9879" y1="40" y2="40"/><line style="stroke:#000000;stroke-width:1.0;" x1="777.4" x2="999.9879" y1="48" y2="48"/></g><!--class IInvalidArgumentException--><g id="elem_IInvalidArgumentException"><rect codeLine="9" fill="#FFFFFF" height="44" id="IInvalidArgumentException" rx="2.5" ry="2.5" style="stroke:#000000;stroke-width:1.0;" width="217.5127" x="1035.94" y="12"/><ellipse cx="1048.94" cy="26" fill="#FFFFFF" rx="9" ry="9" style="stroke:#000000;stroke-width:1.0;"/><path d="M1051.9088,31.6406 Q1051.3306,31.9375 1050.69,32.0781 Q1050.0494,32.2344 1049.3463,32.2344 Q1046.8463,32.2344 1045.5181,30.5938 Q1044.2056,28.9375 1044.2056,25.8125 Q1044.2056,22.6875 1045.5181,21.0313 Q1046.8463,19.375 1049.3463,19.375 Q1050.0494,19.375 1050.69,19.5313 Q1051.3463,19.6875 1051.9088,19.9844 L1051.9088,22.7031 Q1051.2838,22.125 1050.69,21.8594 Q1050.0963,21.5781 1049.4713,21.5781 Q1048.1275,21.5781 1047.44,22.6563 Q1046.7525,23.7188 1046.7525,25.8125 Q1046.7525,27.9063 1047.44,28.9844 Q1048.1275,30.0469 1049.4713,30.0469 Q1050.0963,30.0469 1050.69,29.7813 Q1051.2838,29.5 1051.9088,28.9219 L1051.9088,31.6406 Z " fill="#000000"/><text fill="#000000" font-family="Verdana" font-size="14" lengthAdjust="spacing" textLength="189.5127" x="1060.94" y="30.8467">IInvalidArgumentException</text><line style="stroke:#000000;stroke-width:1.0;" x1="1036.94" x2="1252.4527" y1="40" y2="40"/><line style="stroke:#000000;stroke-width:1.0;" x1="1036.94" x2="1252.4527" y1="48" y2="48"/></g><!--class ISapException--><g id="elem_ISapException"><rect codeLine="10" fill="#FFFFFF" height="44" id="ISapException" rx="2.5" ry="2.5" style="stroke:#000000;stroke-width:1.0;" width="127.627" x="703.88" y="116"/><ellipse cx="716.88" cy="130" fill="#FFFFFF" rx="9" ry="9" style="stroke:#000000;stroke-width:1.0;"/><path d="M719.8488,135.6406 Q719.2706,135.9375 718.63,136.0781 Q717.9894,136.2344 717.2863,136.2344 Q714.7863,136.2344 713.4581,134.5938 Q712.1456,132.9375 712.1456,129.8125 Q712.1456,126.6875 713.4581,125.0313 Q714.7863,123.375 717.2863,123.375 Q717.9894,123.375 718.63,123.5313 Q719.2863,123.6875 719.8488,123.9844 L719.8488,126.7031 Q719.2238,126.125 718.63,125.8594 Q718.0363,125.5781 717.4113,125.5781 Q716.0675,125.5781 715.38,126.6563 Q714.6925,127.7188 714.6925,129.8125 Q714.6925,131.9063 715.38,132.9844 Q716.0675,134.0469 717.4113,134.0469 Q718.0363,134.0469 718.63,133.7813 Q719.2238,133.5 719.8488,132.9219 L719.8488,135.6406 Z " fill="#000000"/><text fill="#000000" font-family="Verdana" font-size="14" lengthAdjust="spacing" textLength="99.627" x="728.88" y="134.8467">ISapException</text><line style="stroke:#000000;stroke-width:1.0;" x1="704.88" x2="830.507" y1="144" y2="144"/><line style="stroke:#000000;stroke-width:1.0;" x1="704.88" x2="830.507" y1="152" y2="152"/></g><!--class IUnknownFunctionException--><g id="elem_IUnknownFunctionException"><rect codeLine="11" fill="#FFFFFF" height="44" id="IUnknownFunctionException" rx="2.5" ry="2.5" style="stroke:#000000;stroke-width:1.0;" width="226.5771" x="1288.41" y="12"/><ellipse cx="1301.41" cy="26" fill="#FFFFFF" rx="9" ry="9" style="stroke:#000000;stroke-width:1.0;"/><path d="M1304.3788,31.6406 Q1303.8006,31.9375 1303.16,32.0781 Q1302.5194,32.2344 1301.8163,32.2344 Q1299.3163,32.2344 1297.9881,30.5938 Q1296.6756,28.9375 1296.6756,25.8125 Q1296.6756,22.6875 1297.9881,21.0313 Q1299.3163,19.375 1301.8163,19.375 Q1302.5194,19.375 1303.16,19.5313 Q1303.8163,19.6875 1304.3788,19.9844 L1304.3788,22.7031 Q1303.7538,22.125 1303.16,21.8594 Q1302.5663,21.5781 1301.9413,21.5781 Q1300.5975,21.5781 1299.91,22.6563 Q1299.2225,23.7188 1299.2225,25.8125 Q1299.2225,27.9063 1299.91,28.9844 Q1300.5975,30.0469 1301.9413,30.0469 Q1302.5663,30.0469 1303.16,29.7813 Q1303.7538,29.5 1304.3788,28.9219 L1304.3788,31.6406 Z " fill="#000000"/><text fill="#000000" font-family="Verdana" font-size="14" lengthAdjust="spacing" textLength="198.5771" x="1313.41" y="30.8467">IUnknownFunctionException</text><line style="stroke:#000000;stroke-width:1.0;" x1="1289.41" x2="1513.9871" y1="40" y2="40"/><line style="stroke:#000000;stroke-width:1.0;" x1="1289.41" x2="1513.9871" y1="48" y2="48"/></g><!--class Stringable--><g id="elem_Stringable"><rect codeLine="12" fill="#FFFFFF" height="44" id="Stringable" rx="2.5" ry="2.5" style="stroke:#000000;stroke-width:1.0;" width="99.75" x="717.82" y="324"/><ellipse cx="730.82" cy="338" fill="#FFFFFF" rx="9" ry="9" style="stroke:#000000;stroke-width:1.0;"/><path d="M733.7888,343.6406 Q733.2106,343.9375 732.57,344.0781 Q731.9294,344.2344 731.2263,344.2344 Q728.7263,344.2344 727.3981,342.5938 Q726.0856,340.9375 726.0856,337.8125 Q726.0856,334.6875 727.3981,333.0313 Q728.7263,331.375 731.2263,331.375 Q731.9294,331.375 732.57,331.5313 Q733.2263,331.6875 733.7888,331.9844 L733.7888,334.7031 Q733.1638,334.125 732.57,333.8594 Q731.9763,333.5781 731.3513,333.5781 Q730.0075,333.5781 729.32,334.6563 Q728.6325,335.7188 728.6325,337.8125 Q728.6325,339.9063 729.32,340.9844 Q730.0075,342.0469 731.3513,342.0469 Q731.9763,342.0469 732.57,341.7813 Q733.1638,341.5 733.7888,340.9219 L733.7888,343.6406 Z " fill="#000000"/><text fill="#000000" font-family="Verdana" font-size="14" lengthAdjust="spacing" textLength="71.75" x="742.82" y="342.8467">Stringable</text><line style="stroke:#000000;stroke-width:1.0;" x1="718.82" x2="816.57" y1="352" y2="352"/><line style="stroke:#000000;stroke-width:1.0;" x1="718.82" x2="816.57" y1="360" y2="360"/></g><!--class Throwable--><g id="elem_Throwable"><rect codeLine="13" fill="#FFFFFF" height="44" id="Throwable" rx="2.5" ry="2.5" style="stroke:#000000;stroke-width:1.0;" width="101.165" x="717.12" y="220"/><ellipse cx="730.12" cy="234" fill="#FFFFFF" rx="9" ry="9" style="stroke:#000000;stroke-width:1.0;"/><path d="M733.0888,239.6406 Q732.5106,239.9375 731.87,240.0781 Q731.2294,240.2344 730.5263,240.2344 Q728.0263,240.2344 726.6981,238.5938 Q725.3856,236.9375 725.3856,233.8125 Q725.3856,230.6875 726.6981,229.0313 Q728.0263,227.375 730.5263,227.375 Q731.2294,227.375 731.87,227.5313 Q732.5263,227.6875 733.0888,227.9844 L733.0888,230.7031 Q732.4638,230.125 731.87,229.8594 Q731.2763,229.5781 730.6513,229.5781 Q729.3075,229.5781 728.62,230.6563 Q727.9325,231.7188 727.9325,233.8125 Q727.9325,235.9063 728.62,236.9844 Q729.3075,238.0469 730.6513,238.0469 Q731.2763,238.0469 731.87,237.7813 Q732.4638,237.5 733.0888,236.9219 L733.0888,239.6406 Z " fill="#000000"/><text fill="#000000" font-family="Verdana" font-size="14" lengthAdjust="spacing" textLength="73.165" x="742.12" y="238.8467">Throwable</text><line style="stroke:#000000;stroke-width:1.0;" x1="718.12" x2="817.285" y1="248" y2="248"/><line style="stroke:#000000;stroke-width:1.0;" x1="718.12" x2="817.285" y1="256" y2="256"/></g><!--link IArrayElementMissingException to ISapException--><g id="link_IArrayElementMissingException_ISapException"><path codeLine="15" d="M136.7,56.4 C136.7,89.08 136.7,146 136.7,146 C136.7,146 524.81,146 685.43,146 " fill="none" id="IArrayElementMissingException-to-ISapException" style="stroke:#008200;stroke-width:1.0;"/><polygon fill="none" points="703.43,146,685.43,140,685.43,152,703.43,146" style="stroke:#008200;stroke-width:1.0;"/></g><!--link IConnectionFailedException to ISapException--><g id="link_IConnectionFailedException_ISapException"><path codeLine="16" d="M407.7,56.5 C407.7,85.15 407.7,131 407.7,131 C407.7,131 582.3,131 685.75,131 " fill="none" id="IConnectionFailedException-to-ISapException" style="stroke:#008200;stroke-width:1.0;"/><polygon fill="none" points="703.75,131,685.75,125,685.75,137,703.75,131" style="stroke:#008200;stroke-width:1.0;"/></g><!--link IFunctionCallException to ISapException--><g id="link_IFunctionCallException_ISapException"><path codeLine="17" d="M722.72,56.31 C722.72,73.86 722.72,80.19 722.72,97.73 " fill="none" id="IFunctionCallException-to-ISapException" style="stroke:#008200;stroke-width:1.0;"/><polygon fill="none" points="722.72,115.73,728.72,97.73,716.72,97.73,722.72,115.73" style="stroke:#008200;stroke-width:1.0;"/></g><!--link IIncompleteConfigException to ISapException--><g id="link_IIncompleteConfigException_ISapException"><path codeLine="18" d="M803.96,56.31 C803.96,73.86 803.96,80.19 803.96,97.73 " fill="none" id="IIncompleteConfigException-to-ISapException" style="stroke:#008200;stroke-width:1.0;"/><polygon fill="none" points="803.96,115.73,809.96,97.73,797.96,97.73,803.96,115.73" style="stroke:#008200;stroke-width:1.0;"/></g><!--link IInvalidArgumentException to ISapException--><g id="link_IInvalidArgumentException_ISapException"><path codeLine="19" d="M1144.7,56.5 C1144.7,85.15 1144.7,131 1144.7,131 C1144.7,131 957.21,131 849.65,131 " fill="none" id="IInvalidArgumentException-to-ISapException" style="stroke:#008200;stroke-width:1.0;"/><polygon fill="none" points="831.65,131,849.65,137,849.65,125,831.65,131" style="stroke:#008200;stroke-width:1.0;"/></g><!--link ISapException to Throwable--><g id="link_ISapException_Throwable"><path codeLine="20" d="M767.7,160.31 C767.7,177.86 767.7,184.19 767.7,201.73 " fill="none" id="ISapException-to-Throwable" style="stroke:#008200;stroke-width:1.0;"/><polygon fill="none" points="767.7,219.73,773.7,201.73,761.7,201.73,767.7,219.73" style="stroke:#008200;stroke-width:1.0;"/></g><!--link IUnknownFunctionException to ISapException--><g id="link_IUnknownFunctionException_ISapException"><path codeLine="21" d="M1401.7,56.4 C1401.7,89.08 1401.7,146 1401.7,146 C1401.7,146 1011.16,146 849.98,146 " fill="none" id="IUnknownFunctionException-to-ISapException" style="stroke:#008200;stroke-width:1.0;"/><polygon fill="none" points="831.98,146,849.98,152,849.98,140,831.98,146" style="stroke:#008200;stroke-width:1.0;"/></g><!--link Throwable to Stringable--><g id="link_Throwable_Stringable"><path codeLine="22" d="M767.7,264.31 C767.7,281.86 767.7,288.19 767.7,305.73 " fill="none" id="Throwable-to-Stringable" style="stroke:#008200;stroke-width:1.0;"/><polygon fill="none" points="767.7,323.73,773.7,305.73,761.7,305.73,767.7,323.73" style="stroke:#008200;stroke-width:1.0;"/></g><!--SRC=[fP9DJyCm38Rl-HL6N9bKSU8wJPkq0wUD4mB9QqqRBRMZn6FitrF2669DUoY-nQ_p-FD66se9l4FBHiM32kn4LLgeRA1IhR29UyiU0xRWB9EUF844RSIOqc6Ci9w7WAUbwqYiZpP6o_NoeoIVVfzZ5iBypLkXTLJr0bO7Jl82dUk9QowbzOwKEiwRhJC1x-XiDG_ruQkAdhv1t_CzyPxbo3-9h_MDXguHt3awExPDa6Dwcz6M0MRFjqNnS5yKTscoBxDN-5i2N9iP7b3Ifn2p4xteKuY3Q_W7CR-twJMEobdYPQ-GCpDu9vDh74-O9VuUuoS0]--></g></svg>