<svg xmlns="http://www.w3.org/2000/svg" xmlns:xlink="http://www.w3.org/1999/xlink" contentStyleType="text/css" height="831px" preserveAspectRatio="none" style="width:367px;height:831px;background:#FFFFFF;" version="1.1" viewBox="0 0 367 831" width="367px" zoomAndPan="magnify"><defs/><g><!--class IConfigTypeA--><g id="elem_IConfigTypeA"><rect codeLine="5" fill="#FFFFFF" height="174.375" id="IConfigTypeA" rx="2.5" ry="2.5" style="stroke:#000000;stroke-width:1.0;" width="152.1162" x="12" y="12"/><ellipse cx="39.0194" cy="26" fill="#FFFFFF" rx="9" ry="9" style="stroke:#000000;stroke-width:1.0;"/><path d="M41.9882,31.6406 Q41.4101,31.9375 40.7694,32.0781 Q40.1288,32.2344 39.4257,32.2344 Q36.9257,32.2344 35.5976,30.5938 Q34.2851,28.9375 34.2851,25.8125 Q34.2851,22.6875 35.5976,21.0313 Q36.9257,19.375 39.4257,19.375 Q40.1288,19.375 40.7694,19.5313 Q41.4257,19.6875 41.9882,19.9844 L41.9882,22.7031 Q41.3632,22.125 40.7694,21.8594 Q40.1757,21.5781 39.5507,21.5781 Q38.2069,21.5781 37.5194,22.6563 Q36.8319,23.7188 36.8319,25.8125 Q36.8319,27.9063 37.5194,28.9844 Q38.2069,30.0469 39.5507,30.0469 Q40.1757,30.0469 40.7694,29.7813 Q41.3632,29.5 41.9882,28.9219 L41.9882,31.6406 Z " fill="#000000"/><text fill="#000000" font-family="Verdana" font-size="14" lengthAdjust="spacing" textLength="92.9619" x="54.1349" y="30.8467">IConfigTypeA</text><line style="stroke:#000000;stroke-width:1.0;" x1="13" x2="163.1162" y1="40" y2="40"/><line style="stroke:#000000;stroke-width:1.0;" x1="13" x2="163.1162" y1="48" y2="48"/><text fill="#000000" font-family="Verdana" font-size="14" lengthAdjust="spacing" textLength="77.7246" x="18" y="64.9951">getSysnr():</text><text fill="#000000" font-family="Verdana" font-size="14" lengthAdjust="spacing" textLength="130.2246" x="18" y="81.292">setAshost(ashost):</text><text fill="#000000" font-family="Verdana" font-size="14" lengthAdjust="spacing" textLength="85.7227" x="18" y="97.5889">getAshost():</text><text fill="#000000" font-family="Verdana" font-size="14" lengthAdjust="spacing" textLength="139.5693" x="18" y="113.8857">setGwserv(gwserv):</text><text fill="#000000" font-family="Verdana" font-size="14" lengthAdjust="spacing" textLength="140.1162" x="18" y="130.1826">setGwhost(gwhost):</text><text fill="#000000" font-family="Verdana" font-size="14" lengthAdjust="spacing" textLength="90.877" x="18" y="146.4795">getGwserv():</text><text fill="#000000" font-family="Verdana" font-size="14" lengthAdjust="spacing" textLength="91.1504" x="18" y="162.7764">getGwhost():</text><text fill="#000000" font-family="Verdana" font-size="14" lengthAdjust="spacing" textLength="113.6338" x="18" y="179.0732">setSysnr(sysnr):</text></g><!--class IConfigTypeB--><g id="elem_IConfigTypeB"><rect codeLine="15" fill="#FFFFFF" height="141.7813" id="IConfigTypeB" rx="2.5" ry="2.5" style="stroke:#000000;stroke-width:1.0;" width="161.7412" x="199.19" y="28.29"/><ellipse cx="230.5284" cy="42.29" fill="#FFFFFF" rx="9" ry="9" style="stroke:#000000;stroke-width:1.0;"/><path d="M233.4971,47.9306 Q232.919,48.2275 232.2784,48.3681 Q231.6378,48.5244 230.9346,48.5244 Q228.4346,48.5244 227.1065,46.8837 Q225.794,45.2275 225.794,42.1025 Q225.794,38.9775 227.1065,37.3212 Q228.4346,35.665 230.9346,35.665 Q231.6378,35.665 232.2784,35.8212 Q232.9346,35.9775 233.4971,36.2744 L233.4971,38.9931 Q232.8721,38.415 232.2784,38.1494 Q231.6846,37.8681 231.0596,37.8681 Q229.7159,37.8681 229.0284,38.9462 Q228.3409,40.0087 228.3409,42.1025 Q228.3409,44.1962 229.0284,45.2744 Q229.7159,46.3369 231.0596,46.3369 Q231.6846,46.3369 232.2784,46.0712 Q232.8721,45.79 233.4971,45.2119 L233.4971,47.9306 Z " fill="#000000"/><text fill="#000000" font-family="Verdana" font-size="14" lengthAdjust="spacing" textLength="92.9893" x="246.6036" y="47.1367">IConfigTypeB</text><line style="stroke:#000000;stroke-width:1.0;" x1="200.19" x2="359.9312" y1="56.29" y2="56.29"/><line style="stroke:#000000;stroke-width:1.0;" x1="200.19" x2="359.9312" y1="64.29" y2="64.29"/><text fill="#000000" font-family="Verdana" font-size="14" lengthAdjust="spacing" textLength="88.2246" x="205.19" y="81.2851">getMshost():</text><text fill="#000000" font-family="Verdana" font-size="14" lengthAdjust="spacing" textLength="120.9346" x="205.19" y="97.582">setGroup(group):</text><text fill="#000000" font-family="Verdana" font-size="14" lengthAdjust="spacing" textLength="137.7852" x="205.19" y="113.8789">setMshost(mshost):</text><text fill="#000000" font-family="Verdana" font-size="14" lengthAdjust="spacing" textLength="149.7412" x="205.19" y="130.1757">setR3name(r3name):</text><text fill="#000000" font-family="Verdana" font-size="14" lengthAdjust="spacing" textLength="81.5596" x="205.19" y="146.4726">getGroup():</text><text fill="#000000" font-family="Verdana" font-size="14" lengthAdjust="spacing" textLength="96.9678" x="205.19" y="162.7695">getR3name():</text></g><!--class IConfiguration--><g id="elem_IConfiguration"><rect codeLine="23" fill="#FFFFFF" height="321.0469" id="IConfiguration" rx="2.5" ry="2.5" style="stroke:#000000;stroke-width:1.0;" width="188.5723" x="89.77" y="246.37"/><ellipse cx="130.7695" cy="260.37" fill="#FFFFFF" rx="9" ry="9" style="stroke:#000000;stroke-width:1.0;"/><path d="M133.7383,266.0106 Q133.1601,266.3075 132.5195,266.4481 Q131.8789,266.6044 131.1758,266.6044 Q128.6758,266.6044 127.3476,264.9637 Q126.0351,263.3075 126.0351,260.1825 Q126.0351,257.0575 127.3476,255.4012 Q128.6758,253.745 131.1758,253.745 Q131.8789,253.745 132.5195,253.9012 Q133.1758,254.0575 133.7383,254.3544 L133.7383,257.0731 Q133.1133,256.495 132.5195,256.2294 Q131.9258,255.9481 131.3008,255.9481 Q129.957,255.9481 129.2695,257.0262 Q128.582,258.0887 128.582,260.1825 Q128.582,262.2762 129.2695,263.3544 Q129.957,264.4169 131.3008,264.4169 Q131.9258,264.4169 132.5195,264.1512 Q133.1133,263.87 133.7383,263.2919 L133.7383,266.0106 Z " fill="#000000"/><text fill="#000000" font-family="Verdana" font-size="14" lengthAdjust="spacing" textLength="99.0732" x="148.2695" y="265.2167">IConfiguration</text><line style="stroke:#000000;stroke-width:1.0;" x1="90.77" x2="277.3423" y1="274.37" y2="274.37"/><line style="stroke:#000000;stroke-width:1.0;" x1="90.77" x2="277.3423" y1="282.37" y2="282.37"/><text fill="#000000" font-family="Verdana" font-size="14" lengthAdjust="spacing" textLength="132.3301" x="95.77" y="299.3651">__construct(array):</text><text fill="#000000" font-family="Verdana" font-size="14" lengthAdjust="spacing" textLength="116.0195" x="95.77" y="315.662">setClient(client):</text><text fill="#000000" font-family="Verdana" font-size="14" lengthAdjust="spacing" textLength="176.5723" x="95.77" y="331.9589">setCodepage(codepage):</text><text fill="#000000" font-family="Verdana" font-size="14" lengthAdjust="spacing" textLength="112.3691" x="95.77" y="348.2557">setTrace(trace):</text><text fill="#000000" font-family="Verdana" font-size="14" lengthAdjust="spacing" textLength="90.5762" x="95.77" y="364.5526">getPasswd():</text><text fill="#000000" font-family="Verdana" font-size="14" lengthAdjust="spacing" textLength="174.2549" x="95.77" y="380.8495">setSaprouter(saprouter):</text><text fill="#000000" font-family="Verdana" font-size="14" lengthAdjust="spacing" textLength="99.4971" x="95.77" y="397.1464">setDest(dest):</text><text fill="#000000" font-family="Verdana" font-size="14" lengthAdjust="spacing" textLength="99.4834" x="95.77" y="413.4432">setUser(user):</text><text fill="#000000" font-family="Verdana" font-size="14" lengthAdjust="spacing" textLength="70.8066" x="95.77" y="429.7401">getDest():</text><text fill="#000000" font-family="Verdana" font-size="14" lengthAdjust="spacing" textLength="101.4043" x="95.77" y="446.037">setLang(lang):</text><text fill="#000000" font-family="Verdana" font-size="14" lengthAdjust="spacing" textLength="72.7686" x="95.77" y="462.3339">getLang():</text><text fill="#000000" font-family="Verdana" font-size="14" lengthAdjust="spacing" textLength="109.4365" x="95.77" y="478.6307">getCodepage():</text><text fill="#000000" font-family="Verdana" font-size="14" lengthAdjust="spacing" textLength="70.54" x="95.77" y="494.9276">getUser():</text><text fill="#000000" font-family="Verdana" font-size="14" lengthAdjust="spacing" textLength="108.0352" x="95.77" y="511.2245">getSaprouter():</text><text fill="#000000" font-family="Verdana" font-size="14" lengthAdjust="spacing" textLength="77.8271" x="95.77" y="527.5214">getTrace():</text><text fill="#000000" font-family="Verdana" font-size="14" lengthAdjust="spacing" textLength="79.1602" x="95.77" y="543.8182">getClient():</text><text fill="#000000" font-family="Verdana" font-size="14" lengthAdjust="spacing" textLength="141.374" x="95.77" y="560.1151">setPasswd(passwd):</text></g><!--class IJsonSerializable--><g id="elem_IJsonSerializable"><rect codeLine="42" fill="#FFFFFF" height="76.5938" id="IJsonSerializable" rx="2.5" ry="2.5" style="stroke:#000000;stroke-width:1.0;" width="144.3301" x="111.89" y="627.42"/><ellipse cx="126.0233" cy="641.42" fill="#FFFFFF" rx="9" ry="9" style="stroke:#000000;stroke-width:1.0;"/><path d="M128.9921,647.0606 Q128.414,647.3575 127.7733,647.4981 Q127.1327,647.6544 126.4296,647.6544 Q123.9296,647.6544 122.6015,646.0138 Q121.289,644.3575 121.289,641.2325 Q121.289,638.1075 122.6015,636.4513 Q123.9296,634.795 126.4296,634.795 Q127.1327,634.795 127.7733,634.9513 Q128.4296,635.1075 128.9921,635.4044 L128.9921,638.1231 Q128.3671,637.545 127.7733,637.2794 Q127.1796,636.9981 126.5546,636.9981 Q125.2108,636.9981 124.5233,638.0763 Q123.8358,639.1388 123.8358,641.2325 Q123.8358,643.3263 124.5233,644.4044 Q125.2108,645.4669 126.5546,645.4669 Q127.1796,645.4669 127.7733,645.2013 Q128.3671,644.92 128.9921,644.3419 L128.9921,647.0606 Z " fill="#000000"/><text fill="#000000" font-family="Verdana" font-size="14" lengthAdjust="spacing" textLength="113.8115" x="138.2752" y="646.2667">IJsonSerializable</text><line style="stroke:#000000;stroke-width:1.0;" x1="112.89" x2="255.2201" y1="655.42" y2="655.42"/><line style="stroke:#000000;stroke-width:1.0;" x1="112.89" x2="255.2201" y1="663.42" y2="663.42"/><text fill="#000000" font-family="Verdana" font-size="14" lengthAdjust="spacing" textLength="132.3301" x="117.89" y="680.4151">__construct(array):</text><text fill="#000000" font-family="Verdana" font-size="14" lengthAdjust="spacing" textLength="126.041" x="117.89" y="696.712">jsonDecode(json):</text></g><!--class JsonSerializable--><g id="elem_JsonSerializable"><rect codeLine="46" fill="#FFFFFF" height="60.2969" id="JsonSerializable" rx="2.5" ry="2.5" style="stroke:#000000;stroke-width:1.0;" width="137.6826" x="115.22" y="764.01"/><ellipse cx="128.22" cy="778.01" fill="#FFFFFF" rx="9" ry="9" style="stroke:#000000;stroke-width:1.0;"/><path d="M131.1888,783.6506 Q130.6106,783.9475 129.97,784.0881 Q129.3294,784.2444 128.6263,784.2444 Q126.1263,784.2444 124.7981,782.6038 Q123.4856,780.9475 123.4856,777.8225 Q123.4856,774.6975 124.7981,773.0413 Q126.1263,771.385 128.6263,771.385 Q129.3294,771.385 129.97,771.5413 Q130.6263,771.6975 131.1888,771.9944 L131.1888,774.7131 Q130.5638,774.135 129.97,773.8694 Q129.3763,773.5881 128.7513,773.5881 Q127.4075,773.5881 126.72,774.6663 Q126.0325,775.7288 126.0325,777.8225 Q126.0325,779.9163 126.72,780.9944 Q127.4075,782.0569 128.7513,782.0569 Q129.3763,782.0569 129.97,781.7913 Q130.5638,781.51 131.1888,780.9319 L131.1888,783.6506 Z " fill="#000000"/><text fill="#000000" font-family="Verdana" font-size="14" lengthAdjust="spacing" textLength="109.6826" x="140.22" y="782.8567">JsonSerializable</text><line style="stroke:#000000;stroke-width:1.0;" x1="116.22" x2="251.9026" y1="792.01" y2="792.01"/><line style="stroke:#000000;stroke-width:1.0;" x1="116.22" x2="251.9026" y1="800.01" y2="800.01"/><text fill="#000000" font-family="Verdana" font-size="14" lengthAdjust="spacing" textLength="103.7285" x="121.22" y="817.0051">jsonSerialize():</text></g><!--link IConfigTypeA to IConfiguration--><g id="link_IConfigTypeA_IConfiguration"><path codeLine="50" d="M126.94,186.54 C126.94,205.2 126.94,207.47 126.94,227.91 " fill="none" id="IConfigTypeA-to-IConfiguration" style="stroke:#008200;stroke-width:1.0;"/><polygon fill="none" points="126.94,245.91,132.94,227.91,120.94,227.91,126.94,245.91" style="stroke:#008200;stroke-width:1.0;"/></g><!--link IConfigTypeB to IConfiguration--><g id="link_IConfigTypeB_IConfiguration"><path codeLine="51" d="M238.77,170.55 C238.77,193.37 238.77,201.62 238.77,228.14 " fill="none" id="IConfigTypeB-to-IConfiguration" style="stroke:#008200;stroke-width:1.0;"/><polygon fill="none" points="238.77,246.14,244.77,228.14,232.77,228.14,238.77,246.14" style="stroke:#008200;stroke-width:1.0;"/></g><!--link IConfiguration to IJsonSerializable--><g id="link_IConfiguration_IJsonSerializable"><path codeLine="52" d="M184.06,567.87 C184.06,589.87 184.06,592.57 184.06,609.22 " fill="none" id="IConfiguration-to-IJsonSerializable" style="stroke:#008200;stroke-width:1.0;"/><polygon fill="none" points="184.06,627.22,190.06,609.22,178.06,609.22,184.06,627.22" style="stroke:#008200;stroke-width:1.0;"/></g><!--link IJsonSerializable to JsonSerializable--><g id="link_IJsonSerializable_JsonSerializable"><path codeLine="53" d="M184.06,704.25 C184.06,723.32 184.06,728 184.06,745.81 " fill="none" id="IJsonSerializable-to-JsonSerializable" style="stroke:#008200;stroke-width:1.0;"/><polygon fill="none" points="184.06,763.81,190.06,745.81,178.06,745.81,184.06,763.81" style="stroke:#008200;stroke-width:1.0;"/></g><!--SRC=[dLD1JyCW5BxpAp1UC759enVZRMw9qMXYt3mPDQnzCcOB1AZBDFvtWNQ5heq7U-31n_SUt_iAHtOD5M1LKYwGbGfRYLVIMbdXWcl8BPS2cGyk5DMqmYKNO7SAiDHsBH7AIseClfb9ySxPqcrCyJV263EmYvqHcfnSOhysOATcBOqbD8GMPXqSUTTR0_gJi11IEF3Ojf_UibFWe5wZm_ZHWpz3pLUTvlk162rhHPWV8zYoghGJ1p-U2re1qI4aWaA9k6vf8rfgJRtTZPgtjrmAOtMTEy-qfhjuqApa82p9GqXWMO2Y34ZUJkBMKjCSYFLZ5FBWZjuMgLDKEQqMd5lxMToSWskvWBJX9sSzgKt7OYqhCkweOAHqGsG4A2uxqH4APUCogefOqqzIfN4a7jpsfaBeMNrhf5Y0vhJaNtHLmjzkRnnx3jvGugTffV52cmJT_sJKUn_DDta-phABiomx3K_lPVAA3w-1-r3lbludCu76CmTje24qcdd8-WK0]--></g></svg>