<svg xmlns="http://www.w3.org/2000/svg" xmlns:xlink="http://www.w3.org/1999/xlink" contentStyleType="text/css" height="570px" preserveAspectRatio="none" style="width:1065px;height:570px;background:#FFFFFF;" version="1.1" viewBox="0 0 1065 570" width="1065px" zoomAndPan="magnify"><defs/><g><!--class IApi--><g id="elem_IApi"><rect codeLine="5" fill="#FFFFFF" height="125.4844" id="IApi" rx="2.5" ry="2.5" style="stroke:#000000;stroke-width:1.0;" width="182.5225" x="278.37" y="181.18"/><ellipse cx="352.64" cy="195.18" fill="#FFFFFF" rx="9" ry="9" style="stroke:#000000;stroke-width:1.0;"/><path d="M355.6088,200.8206 Q355.0306,201.1175 354.39,201.2581 Q353.7494,201.4144 353.0463,201.4144 Q350.5463,201.4144 349.2181,199.7737 Q347.9056,198.1175 347.9056,194.9925 Q347.9056,191.8675 349.2181,190.2112 Q350.5463,188.555 353.0463,188.555 Q353.7494,188.555 354.39,188.7112 Q355.0463,188.8675 355.6088,189.1644 L355.6088,191.8831 Q354.9838,191.305 354.39,191.0394 Q353.7963,190.7581 353.1713,190.7581 Q351.8275,190.7581 351.14,191.8362 Q350.4525,192.8987 350.4525,194.9925 Q350.4525,197.0862 351.14,198.1644 Q351.8275,199.2269 353.1713,199.2269 Q353.7963,199.2269 354.39,198.9612 Q354.9838,198.68 355.6088,198.1019 L355.6088,200.8206 Z " fill="#000000"/><text fill="#000000" font-family="Verdana" font-size="14" lengthAdjust="spacing" textLength="26.4824" x="370.14" y="200.0267">IApi</text><line style="stroke:#000000;stroke-width:1.0;" x1="279.37" x2="459.8925" y1="209.18" y2="209.18"/><line style="stroke:#000000;stroke-width:1.0;" x1="279.37" x2="459.8925" y1="217.18" y2="217.18"/><text fill="#000000" font-family="Verdana" font-size="14" lengthAdjust="spacing" textLength="140.1367" x="284.37" y="234.1751">getInputElements():</text><text fill="#000000" font-family="Verdana" font-size="14" lengthAdjust="spacing" textLength="152.5166" x="284.37" y="250.472">getOutputElements():</text><text fill="#000000" font-family="Verdana" font-size="14" lengthAdjust="spacing" textLength="99.7227" x="284.37" y="266.7689">add(element):</text><text fill="#000000" font-family="Verdana" font-size="14" lengthAdjust="spacing" textLength="84.4443" x="284.37" y="283.0657">getTables():</text><text fill="#000000" font-family="Verdana" font-size="14" lengthAdjust="spacing" textLength="170.5225" x="284.37" y="299.3626">getChangingElements():</text></g><!--class IApiElement--><g id="elem_IApiElement"><rect codeLine="12" fill="#FFFFFF" height="109.1875" id="IApiElement" rx="2.5" ry="2.5" style="stroke:#000000;stroke-width:1.0;" width="114.1836" x="495.54" y="189.33"/><ellipse cx="509.3227" cy="203.33" fill="#FFFFFF" rx="9" ry="9" style="stroke:#000000;stroke-width:1.0;"/><path d="M512.2914,208.9706 Q511.7133,209.2675 511.0727,209.4081 Q510.432,209.5644 509.7289,209.5644 Q507.2289,209.5644 505.9008,207.9237 Q504.5883,206.2675 504.5883,203.1425 Q504.5883,200.0175 505.9008,198.3612 Q507.2289,196.705 509.7289,196.705 Q510.432,196.705 511.0727,196.8612 Q511.7289,197.0175 512.2914,197.3144 L512.2914,200.0331 Q511.6664,199.455 511.0727,199.1894 Q510.4789,198.9081 509.8539,198.9081 Q508.5102,198.9081 507.8227,199.9862 Q507.1352,201.0487 507.1352,203.1425 Q507.1352,205.2362 507.8227,206.3144 Q508.5102,207.3769 509.8539,207.3769 Q510.4789,207.3769 511.0727,207.1112 Q511.6664,206.83 512.2914,206.2519 L512.2914,208.9706 Z " fill="#000000"/><text fill="#000000" font-family="Verdana" font-size="14" lengthAdjust="spacing" textLength="84.4443" x="521.4966" y="208.1767">IApiElement</text><line style="stroke:#000000;stroke-width:1.0;" x1="496.54" x2="608.7236" y1="217.33" y2="217.33"/><line style="stroke:#000000;stroke-width:1.0;" x1="496.54" x2="608.7236" y1="225.33" y2="225.33"/><text fill="#000000" font-family="Verdana" font-size="14" lengthAdjust="spacing" textLength="102.1836" x="501.54" y="242.3251">getDirection():</text><text fill="#000000" font-family="Verdana" font-size="14" lengthAdjust="spacing" textLength="86.0166" x="501.54" y="258.622">isOptional():</text><text fill="#000000" font-family="Verdana" font-size="14" lengthAdjust="spacing" textLength="72.9668" x="501.54" y="274.9189">getType():</text><text fill="#000000" font-family="Verdana" font-size="14" lengthAdjust="spacing" textLength="79.9326" x="501.54" y="291.2157">getName():</text></g><!--class IJsonSerializable--><g id="elem_IJsonSerializable"><rect codeLine="18" fill="#FFFFFF" height="76.5938" id="IJsonSerializable" rx="2.5" ry="2.5" style="stroke:#000000;stroke-width:1.0;" width="144.3301" x="480.47" y="366.67"/><ellipse cx="494.6033" cy="380.67" fill="#FFFFFF" rx="9" ry="9" style="stroke:#000000;stroke-width:1.0;"/><path d="M497.5721,386.3106 Q496.994,386.6075 496.3533,386.7481 Q495.7127,386.9044 495.0096,386.9044 Q492.5096,386.9044 491.1815,385.2637 Q489.869,383.6075 489.869,380.4825 Q489.869,377.3575 491.1815,375.7012 Q492.5096,374.045 495.0096,374.045 Q495.7127,374.045 496.3533,374.2012 Q497.0096,374.3575 497.5721,374.6544 L497.5721,377.3731 Q496.9471,376.795 496.3533,376.5294 Q495.7596,376.2481 495.1346,376.2481 Q493.7908,376.2481 493.1033,377.3262 Q492.4158,378.3887 492.4158,380.4825 Q492.4158,382.5762 493.1033,383.6544 Q493.7908,384.7169 495.1346,384.7169 Q495.7596,384.7169 496.3533,384.4512 Q496.9471,384.17 497.5721,383.5919 L497.5721,386.3106 Z " fill="#000000"/><text fill="#000000" font-family="Verdana" font-size="14" lengthAdjust="spacing" textLength="113.8115" x="506.8552" y="385.5167">IJsonSerializable</text><line style="stroke:#000000;stroke-width:1.0;" x1="481.47" x2="623.8001" y1="394.67" y2="394.67"/><line style="stroke:#000000;stroke-width:1.0;" x1="481.47" x2="623.8001" y1="402.67" y2="402.67"/><text fill="#000000" font-family="Verdana" font-size="14" lengthAdjust="spacing" textLength="132.3301" x="486.47" y="419.6651">__construct(array):</text><text fill="#000000" font-family="Verdana" font-size="14" lengthAdjust="spacing" textLength="126.041" x="486.47" y="435.962">jsonDecode(json):</text></g><!--class IMember--><g id="elem_IMember"><rect codeLine="22" fill="#FFFFFF" height="125.4844" id="IMember" rx="2.5" ry="2.5" style="stroke:#000000;stroke-width:1.0;" width="152.2666" x="644.5" y="181.18"/><ellipse cx="686.0259" cy="195.18" fill="#FFFFFF" rx="9" ry="9" style="stroke:#000000;stroke-width:1.0;"/><path d="M688.9946,200.8206 Q688.4165,201.1175 687.7759,201.2581 Q687.1353,201.4144 686.4321,201.4144 Q683.9321,201.4144 682.604,199.7737 Q681.2915,198.1175 681.2915,194.9925 Q681.2915,191.8675 682.604,190.2112 Q683.9321,188.555 686.4321,188.555 Q687.1353,188.555 687.7759,188.7112 Q688.4321,188.8675 688.9946,189.1644 L688.9946,191.8831 Q688.3696,191.305 687.7759,191.0394 Q687.1821,190.7581 686.5571,190.7581 Q685.2134,190.7581 684.5259,191.8362 Q683.8384,192.8987 683.8384,194.9925 Q683.8384,197.0862 684.5259,198.1644 Q685.2134,199.2269 686.5571,199.2269 Q687.1821,199.2269 687.7759,198.9612 Q688.3696,198.68 688.9946,198.1019 L688.9946,200.8206 Z " fill="#000000"/><text fill="#000000" font-family="Verdana" font-size="14" lengthAdjust="spacing" textLength="61.7148" x="703.5259" y="200.0267">IMember</text><line style="stroke:#000000;stroke-width:1.0;" x1="645.5" x2="795.7666" y1="209.18" y2="209.18"/><line style="stroke:#000000;stroke-width:1.0;" x1="645.5" x2="795.7666" y1="217.18" y2="217.18"/><text fill="#000000" font-family="Verdana" font-size="14" lengthAdjust="spacing" textLength="132.3301" x="650.5" y="234.1751">__construct(array):</text><text fill="#000000" font-family="Verdana" font-size="14" lengthAdjust="spacing" textLength="140.2666" x="650.5" y="250.472">create(type, name):</text><text fill="#000000" font-family="Verdana" font-size="14" lengthAdjust="spacing" textLength="82.9404" x="650.5" y="266.7689">cast(value):</text><text fill="#000000" font-family="Verdana" font-size="14" lengthAdjust="spacing" textLength="72.9668" x="650.5" y="283.0657">getType():</text><text fill="#000000" font-family="Verdana" font-size="14" lengthAdjust="spacing" textLength="79.9326" x="650.5" y="299.3626">getName():</text></g><!--class IStruct--><g id="elem_IStruct"><rect codeLine="29" fill="#FFFFFF" height="109.1875" id="IStruct" rx="2.5" ry="2.5" style="stroke:#000000;stroke-width:1.0;" width="337.2676" x="12" y="12"/><ellipse cx="153.7236" cy="26" fill="#FFFFFF" rx="9" ry="9" style="stroke:#000000;stroke-width:1.0;"/><path d="M156.6924,31.6406 Q156.1143,31.9375 155.4736,32.0781 Q154.833,32.2344 154.1299,32.2344 Q151.6299,32.2344 150.3018,30.5938 Q148.9893,28.9375 148.9893,25.8125 Q148.9893,22.6875 150.3018,21.0313 Q151.6299,19.375 154.1299,19.375 Q154.833,19.375 155.4736,19.5313 Q156.1299,19.6875 156.6924,19.9844 L156.6924,22.7031 Q156.0674,22.125 155.4736,21.8594 Q154.8799,21.5781 154.2549,21.5781 Q152.9111,21.5781 152.2236,22.6563 Q151.5361,23.7188 151.5361,25.8125 Q151.5361,27.9063 152.2236,28.9844 Q152.9111,30.0469 154.2549,30.0469 Q154.8799,30.0469 155.4736,29.7813 Q156.0674,29.5 156.6924,28.9219 L156.6924,31.6406 Z " fill="#000000"/><text fill="#000000" font-family="Verdana" font-size="14" lengthAdjust="spacing" textLength="46.3203" x="171.2236" y="30.8467">IStruct</text><line style="stroke:#000000;stroke-width:1.0;" x1="13" x2="348.2676" y1="40" y2="40"/><line style="stroke:#000000;stroke-width:1.0;" x1="13" x2="348.2676" y1="48" y2="48"/><text fill="#000000" font-family="Verdana" font-size="14" lengthAdjust="spacing" textLength="132.3301" x="18" y="64.9951">__construct(array):</text><text fill="#000000" font-family="Verdana" font-size="14" lengthAdjust="spacing" textLength="325.2676" x="18" y="81.292">create(name, direction, isOptional, members):</text><text fill="#000000" font-family="Verdana" font-size="14" lengthAdjust="spacing" textLength="103.5098" x="18" y="97.5889">getMembers():</text><text fill="#000000" font-family="Verdana" font-size="14" lengthAdjust="spacing" textLength="82.9404" x="18" y="113.8857">cast(value):</text></g><!--class ITable--><g id="elem_ITable"><rect codeLine="35" fill="#FFFFFF" height="109.1875" id="ITable" rx="2.5" ry="2.5" style="stroke:#000000;stroke-width:1.0;" width="337.2676" x="384" y="12"/><ellipse cx="527.5591" cy="26" fill="#FFFFFF" rx="9" ry="9" style="stroke:#000000;stroke-width:1.0;"/><path d="M530.5278,31.6406 Q529.9497,31.9375 529.3091,32.0781 Q528.6685,32.2344 527.9653,32.2344 Q525.4653,32.2344 524.1372,30.5938 Q522.8247,28.9375 522.8247,25.8125 Q522.8247,22.6875 524.1372,21.0313 Q525.4653,19.375 527.9653,19.375 Q528.6685,19.375 529.3091,19.5313 Q529.9653,19.6875 530.5278,19.9844 L530.5278,22.7031 Q529.9028,22.125 529.3091,21.8594 Q528.7153,21.5781 528.0903,21.5781 Q526.7466,21.5781 526.0591,22.6563 Q525.3716,23.7188 525.3716,25.8125 Q525.3716,27.9063 526.0591,28.9844 Q526.7466,30.0469 528.0903,30.0469 Q528.7153,30.0469 529.3091,29.7813 Q529.9028,29.5 530.5278,28.9219 L530.5278,31.6406 Z " fill="#000000"/><text fill="#000000" font-family="Verdana" font-size="14" lengthAdjust="spacing" textLength="42.6494" x="545.0591" y="30.8467">ITable</text><line style="stroke:#000000;stroke-width:1.0;" x1="385" x2="720.2676" y1="40" y2="40"/><line style="stroke:#000000;stroke-width:1.0;" x1="385" x2="720.2676" y1="48" y2="48"/><text fill="#000000" font-family="Verdana" font-size="14" lengthAdjust="spacing" textLength="132.3301" x="390" y="64.9951">__construct(array):</text><text fill="#000000" font-family="Verdana" font-size="14" lengthAdjust="spacing" textLength="325.2676" x="390" y="81.292">create(name, direction, isOptional, members):</text><text fill="#000000" font-family="Verdana" font-size="14" lengthAdjust="spacing" textLength="103.5098" x="390" y="97.5889">getMembers():</text><text fill="#000000" font-family="Verdana" font-size="14" lengthAdjust="spacing" textLength="82.9404" x="390" y="113.8857">cast(value):</text></g><!--class IValue--><g id="elem_IValue"><rect codeLine="41" fill="#FFFFFF" height="92.8906" id="IValue" rx="2.5" ry="2.5" style="stroke:#000000;stroke-width:1.0;" width="302.1035" x="756.58" y="20.15"/><ellipse cx="882.0512" cy="34.15" fill="#FFFFFF" rx="9" ry="9" style="stroke:#000000;stroke-width:1.0;"/><path d="M885.0199,39.7906 Q884.4418,40.0875 883.8012,40.2281 Q883.1606,40.3844 882.4574,40.3844 Q879.9574,40.3844 878.6293,38.7437 Q877.3168,37.0875 877.3168,33.9625 Q877.3168,30.8375 878.6293,29.1812 Q879.9574,27.525 882.4574,27.525 Q883.1606,27.525 883.8012,27.6812 Q884.4574,27.8375 885.0199,28.1344 L885.0199,30.8531 Q884.3949,30.275 883.8012,30.0094 Q883.2074,29.7281 882.5824,29.7281 Q881.2387,29.7281 880.5512,30.8062 Q879.8637,31.8687 879.8637,33.9625 Q879.8637,36.0562 880.5512,37.1344 Q881.2387,38.1969 882.5824,38.1969 Q883.2074,38.1969 883.8012,37.9312 Q884.3949,37.65 885.0199,37.0719 L885.0199,39.7906 Z " fill="#000000"/><text fill="#000000" font-family="Verdana" font-size="14" lengthAdjust="spacing" textLength="43.6611" x="899.5512" y="38.9967">IValue</text><line style="stroke:#000000;stroke-width:1.0;" x1="757.58" x2="1057.6835" y1="48.15" y2="48.15"/><line style="stroke:#000000;stroke-width:1.0;" x1="757.58" x2="1057.6835" y1="56.15" y2="56.15"/><text fill="#000000" font-family="Verdana" font-size="14" lengthAdjust="spacing" textLength="132.3301" x="762.58" y="73.1451">__construct(array):</text><text fill="#000000" font-family="Verdana" font-size="14" lengthAdjust="spacing" textLength="290.1035" x="762.58" y="89.442">create(type, name, direction, isOptional):</text><text fill="#000000" font-family="Verdana" font-size="14" lengthAdjust="spacing" textLength="82.9404" x="762.58" y="105.7389">cast(value):</text></g><!--class JsonSerializable--><g id="elem_JsonSerializable"><rect codeLine="46" fill="#FFFFFF" height="60.2969" id="JsonSerializable" rx="2.5" ry="2.5" style="stroke:#000000;stroke-width:1.0;" width="137.6826" x="483.79" y="503.26"/><ellipse cx="496.79" cy="517.26" fill="#FFFFFF" rx="9" ry="9" style="stroke:#000000;stroke-width:1.0;"/><path d="M499.7588,522.9006 Q499.1806,523.1975 498.54,523.3381 Q497.8994,523.4944 497.1963,523.4944 Q494.6963,523.4944 493.3681,521.8538 Q492.0556,520.1975 492.0556,517.0725 Q492.0556,513.9475 493.3681,512.2913 Q494.6963,510.635 497.1963,510.635 Q497.8994,510.635 498.54,510.7913 Q499.1963,510.9475 499.7588,511.2444 L499.7588,513.9631 Q499.1338,513.385 498.54,513.1194 Q497.9463,512.8381 497.3213,512.8381 Q495.9775,512.8381 495.29,513.9163 Q494.6025,514.9788 494.6025,517.0725 Q494.6025,519.1663 495.29,520.2444 Q495.9775,521.3069 497.3213,521.3069 Q497.9463,521.3069 498.54,521.0413 Q499.1338,520.76 499.7588,520.1819 L499.7588,522.9006 Z " fill="#000000"/><text fill="#000000" font-family="Verdana" font-size="14" lengthAdjust="spacing" textLength="109.6826" x="508.79" y="522.1067">JsonSerializable</text><line style="stroke:#000000;stroke-width:1.0;" x1="484.79" x2="620.4726" y1="531.26" y2="531.26"/><line style="stroke:#000000;stroke-width:1.0;" x1="484.79" x2="620.4726" y1="539.26" y2="539.26"/><text fill="#000000" font-family="Verdana" font-size="14" lengthAdjust="spacing" textLength="103.7285" x="489.79" y="556.2551">jsonSerialize():</text></g><!--link IApi to IJsonSerializable--><g id="link_IApi_IJsonSerializable"><path codeLine="50" d="M461.15,301.56 C476.73,301.56 488.01,301.56 488.01,301.56 C488.01,301.56 488.01,319.06 488.01,348.46 " fill="none" id="IApi-to-IJsonSerializable" style="stroke:#008200;stroke-width:1.0;"/><polygon fill="none" points="488.01,366.46,494.01,348.46,482.01,348.46,488.01,366.46" style="stroke:#008200;stroke-width:1.0;"/></g><!--link IApiElement to IJsonSerializable--><g id="link_IApiElement_IJsonSerializable"><path codeLine="51" d="M552.63,298.9 C552.63,321.13 552.63,328.26 552.63,348.48 " fill="none" id="IApiElement-to-IJsonSerializable" style="stroke:#008200;stroke-width:1.0;"/><polygon fill="none" points="552.63,366.48,558.63,348.48,546.63,348.48,552.63,366.48" style="stroke:#008200;stroke-width:1.0;"/></g><!--link IJsonSerializable to JsonSerializable--><g id="link_IJsonSerializable_JsonSerializable"><path codeLine="52" d="M552.63,443.5 C552.63,462.57 552.63,467.25 552.63,485.06 " fill="none" id="IJsonSerializable-to-JsonSerializable" style="stroke:#008200;stroke-width:1.0;"/><polygon fill="none" points="552.63,503.06,558.63,485.06,546.63,485.06,552.63,503.06" style="stroke:#008200;stroke-width:1.0;"/></g><!--link IMember to IJsonSerializable--><g id="link_IMember_IJsonSerializable"><path codeLine="53" d="M644.15,304.56 C628.79,304.56 617.26,304.56 617.26,304.56 C617.26,304.56 617.26,320.12 617.26,348.43 " fill="none" id="IMember-to-IJsonSerializable" style="stroke:#008200;stroke-width:1.0;"/><polygon fill="none" points="617.26,366.43,623.26,348.43,611.26,348.43,617.26,366.43" style="stroke:#008200;stroke-width:1.0;"/></g><!--link IStruct to IApiElement--><g id="link_IStruct_IApiElement"><path codeLine="54" d="M313.82,121.47 C313.82,132.9 313.82,141.56 313.82,141.56 C313.82,141.56 524.09,141.56 524.09,141.56 C524.09,141.56 524.09,146.62 524.09,170.85 " fill="none" id="IStruct-to-IApiElement" style="stroke:#008200;stroke-width:1.0;"/><polygon fill="none" points="524.09,188.85,530.09,170.85,518.09,170.85,524.09,188.85" style="stroke:#008200;stroke-width:1.0;"/></g><!--link ITable to IApiElement--><g id="link_ITable_IApiElement"><path codeLine="55" d="M552.63,121.24 C552.63,142.72 552.63,149.33 552.63,170.84 " fill="none" id="ITable-to-IApiElement" style="stroke:#008200;stroke-width:1.0;"/><polygon fill="none" points="552.63,188.84,558.63,170.84,546.63,170.84,552.63,188.84" style="stroke:#008200;stroke-width:1.0;"/></g><!--link IValue to IApiElement--><g id="link_IValue_IApiElement"><path codeLine="56" d="M776.67,113.52 C776.67,137.45 776.67,161.56 776.67,161.56 C776.67,161.56 581.18,161.56 581.18,161.56 C581.18,161.56 581.18,155.88 581.18,170.99 " fill="none" id="IValue-to-IApiElement" style="stroke:#008200;stroke-width:1.0;"/><polygon fill="none" points="581.18,188.99,587.18,170.99,575.18,170.99,581.18,188.99" style="stroke:#008200;stroke-width:1.0;"/></g><!--SRC=[jLDBIyD04BxlhnZn4Y65u4cyYNgee3sqU14jqsHejsvsm-v4gE9_DyzsGsDh2kQKdPtlCOyzunMb19b2gGMR3DZ0mZ2R519fAMPfj73lKcTeCGKbDV4c8p2MLqQ8MA5pCBx997m905WIZtMMyxqgM3MxuE8QclWavvuBJ9A0wjWkTOOBHJxsTeLwAVMoW_xsr9kBhOcxrdjB8jqaAy-eFDfPKObtVCAKkimFpkWfMObAVfQUQlxvF3RQiSrZ3j1Qt3GKwoBxZcAJK53-TfWUALsGFOoFBI5JKFOt15sOQUFeEFX0bTC0wzEA_q-2fLIu6tVeDIk4j3BkTb9r9TlfTCrjvMV7s_MFwizbP62pV_5mKAX_FzPUj9sAgDv8znkzd4VHrMKKXTNpUnszGS_A2N-_1oBtGht8_IpHxki9Rfl5EuRSAqeqEtCAifxt0EGF]--></g></svg>