<svg xmlns="http://www.w3.org/2000/svg" xmlns:xlink="http://www.w3.org/1999/xlink" contentStyleType="text/css" height="499px" preserveAspectRatio="none" style="width:274px;height:499px;background:#FFFFFF;" version="1.1" viewBox="0 0 274 499" width="274px" zoomAndPan="magnify"><defs/><g><!--class IFunction--><g id="elem_IFunction"><rect codeLine="5" fill="#FFFFFF" height="223.2656" id="IFunction" rx="2.5" ry="2.5" style="stroke:#000000;stroke-width:1.0;" width="255.7217" x="12" y="12"/><ellipse cx="103.8896" cy="26" fill="#FFFFFF" rx="9" ry="9" style="stroke:#000000;stroke-width:1.0;"/><path d="M106.8584,31.6406 Q106.2803,31.9375 105.6396,32.0781 Q104.999,32.2344 104.2959,32.2344 Q101.7959,32.2344 100.4678,30.5938 Q99.1553,28.9375 99.1553,25.8125 Q99.1553,22.6875 100.4678,21.0313 Q101.7959,19.375 104.2959,19.375 Q104.999,19.375 105.6396,19.5313 Q106.2959,19.6875 106.8584,19.9844 L106.8584,22.7031 Q106.2334,22.125 105.6396,21.8594 Q105.0459,21.5781 104.4209,21.5781 Q103.0771,21.5781 102.3896,22.6563 Q101.7021,23.7188 101.7021,25.8125 Q101.7021,27.9063 102.3896,28.9844 Q103.0771,30.0469 104.4209,30.0469 Q105.0459,30.0469 105.6396,29.7813 Q106.2334,29.5 106.8584,28.9219 L106.8584,31.6406 Z " fill="#000000"/><text fill="#000000" font-family="Verdana" font-size="14" lengthAdjust="spacing" textLength="64.4424" x="121.3896" y="30.8467">IFunction</text><line style="stroke:#000000;stroke-width:1.0;" x1="13" x2="266.7217" y1="40" y2="40"/><line style="stroke:#000000;stroke-width:1.0;" x1="13" x2="266.7217" y1="48" y2="48"/><text fill="#000000" font-family="Verdana" font-size="14" lengthAdjust="spacing" textLength="142.0576" x="18" y="64.9951">setParams(params):</text><text fill="#000000" font-family="Verdana" font-size="14" lengthAdjust="spacing" textLength="87.9033" x="18" y="81.292">extractApi():</text><text fill="#000000" font-family="Verdana" font-size="14" lengthAdjust="spacing" textLength="133.5742" x="18" y="97.5889">getConfiguration():</text><text fill="#000000" font-family="Verdana" font-size="14" lengthAdjust="spacing" textLength="174.8223" x="18" y="113.8857">setConfiguration(config):</text><text fill="#000000" font-family="Verdana" font-size="14" lengthAdjust="spacing" textLength="243.7217" x="18" y="130.1826">create(name, params, config, api):</text><text fill="#000000" font-family="Verdana" font-size="14" lengthAdjust="spacing" textLength="90.918" x="18" y="146.4795">getParams():</text><text fill="#000000" font-family="Verdana" font-size="14" lengthAdjust="spacing" textLength="80.7461" x="18" y="162.7764">setApi(api):</text><text fill="#000000" font-family="Verdana" font-size="14" lengthAdjust="spacing" textLength="103.6943" x="18" y="179.0732">resetParams():</text><text fill="#000000" font-family="Verdana" font-size="14" lengthAdjust="spacing" textLength="60.9834" x="18" y="195.3701">getApi():</text><text fill="#000000" font-family="Verdana" font-size="14" lengthAdjust="spacing" textLength="79.9326" x="18" y="211.667">getName():</text><text fill="#000000" font-family="Verdana" font-size="14" lengthAdjust="spacing" textLength="61.9746" x="18" y="227.9639">invoke():</text></g><!--class IJsonSerializable--><g id="elem_IJsonSerializable"><rect codeLine="18" fill="#FFFFFF" height="76.5938" id="IJsonSerializable" rx="2.5" ry="2.5" style="stroke:#000000;stroke-width:1.0;" width="144.3301" x="67.7" y="295.27"/><ellipse cx="81.8333" cy="309.27" fill="#FFFFFF" rx="9" ry="9" style="stroke:#000000;stroke-width:1.0;"/><path d="M84.8021,314.9106 Q84.224,315.2075 83.5833,315.3481 Q82.9427,315.5044 82.2396,315.5044 Q79.7396,315.5044 78.4115,313.8638 Q77.099,312.2075 77.099,309.0825 Q77.099,305.9575 78.4115,304.3013 Q79.7396,302.645 82.2396,302.645 Q82.9427,302.645 83.5833,302.8013 Q84.2396,302.9575 84.8021,303.2544 L84.8021,305.9731 Q84.1771,305.395 83.5833,305.1294 Q82.9896,304.8481 82.3646,304.8481 Q81.0208,304.8481 80.3333,305.9263 Q79.6458,306.9888 79.6458,309.0825 Q79.6458,311.1763 80.3333,312.2544 Q81.0208,313.3169 82.3646,313.3169 Q82.9896,313.3169 83.5833,313.0513 Q84.1771,312.77 84.8021,312.1919 L84.8021,314.9106 Z " fill="#000000"/><text fill="#000000" font-family="Verdana" font-size="14" lengthAdjust="spacing" textLength="113.8115" x="94.0852" y="314.1167">IJsonSerializable</text><line style="stroke:#000000;stroke-width:1.0;" x1="68.7" x2="211.0301" y1="323.27" y2="323.27"/><line style="stroke:#000000;stroke-width:1.0;" x1="68.7" x2="211.0301" y1="331.27" y2="331.27"/><text fill="#000000" font-family="Verdana" font-size="14" lengthAdjust="spacing" textLength="132.3301" x="73.7" y="348.2651">__construct(array):</text><text fill="#000000" font-family="Verdana" font-size="14" lengthAdjust="spacing" textLength="126.041" x="73.7" y="364.562">jsonDecode(json):</text></g><!--class JsonSerializable--><g id="elem_JsonSerializable"><rect codeLine="22" fill="#FFFFFF" height="60.2969" id="JsonSerializable" rx="2.5" ry="2.5" style="stroke:#000000;stroke-width:1.0;" width="137.6826" x="71.02" y="431.86"/><ellipse cx="84.02" cy="445.86" fill="#FFFFFF" rx="9" ry="9" style="stroke:#000000;stroke-width:1.0;"/><path d="M86.9888,451.5006 Q86.4106,451.7975 85.77,451.9381 Q85.1294,452.0944 84.4263,452.0944 Q81.9263,452.0944 80.5981,450.4538 Q79.2856,448.7975 79.2856,445.6725 Q79.2856,442.5475 80.5981,440.8913 Q81.9263,439.235 84.4263,439.235 Q85.1294,439.235 85.77,439.3913 Q86.4263,439.5475 86.9888,439.8444 L86.9888,442.5631 Q86.3638,441.985 85.77,441.7194 Q85.1763,441.4381 84.5513,441.4381 Q83.2075,441.4381 82.52,442.5163 Q81.8325,443.5788 81.8325,445.6725 Q81.8325,447.7663 82.52,448.8444 Q83.2075,449.9069 84.5513,449.9069 Q85.1763,449.9069 85.77,449.6413 Q86.3638,449.36 86.9888,448.7819 L86.9888,451.5006 Z " fill="#000000"/><text fill="#000000" font-family="Verdana" font-size="14" lengthAdjust="spacing" textLength="109.6826" x="96.02" y="450.7067">JsonSerializable</text><line style="stroke:#000000;stroke-width:1.0;" x1="72.02" x2="207.7026" y1="459.86" y2="459.86"/><line style="stroke:#000000;stroke-width:1.0;" x1="72.02" x2="207.7026" y1="467.86" y2="467.86"/><text fill="#000000" font-family="Verdana" font-size="14" lengthAdjust="spacing" textLength="103.7285" x="77.02" y="484.8551">jsonSerialize():</text></g><!--link IFunction to IJsonSerializable--><g id="link_IFunction_IJsonSerializable"><path codeLine="26" d="M139.86,235.67 C139.86,256.97 139.86,259.88 139.86,276.87 " fill="none" id="IFunction-to-IJsonSerializable" style="stroke:#008200;stroke-width:1.0;"/><polygon fill="none" points="139.86,294.87,145.86,276.87,133.86,276.87,139.86,294.87" style="stroke:#008200;stroke-width:1.0;"/></g><!--link IJsonSerializable to JsonSerializable--><g id="link_IJsonSerializable_JsonSerializable"><path codeLine="27" d="M139.86,372.1 C139.86,391.17 139.86,395.85 139.86,413.66 " fill="none" id="IJsonSerializable-to-JsonSerializable" style="stroke:#008200;stroke-width:1.0;"/><polygon fill="none" points="139.86,431.66,145.86,413.66,133.86,413.66,139.86,431.66" style="stroke:#008200;stroke-width:1.0;"/></g><!--SRC=[RL5DJyCm3BtdLnZjKgHEgZWXRWWq2GuJ4aS4avUPpbiRHucB68Z_JZ_fL9fJ_FBythDpeNig2No1x8oA1nNOYggKiED0LbcSYKTs7WEMKB0ZFNa22ReNOso1CSB3gd8j4xuD04JIfuOTaxOfNjv00zEd1hHwwpdfaPpqJjmxvrN0fdt0unItRTM_sa2eb3WiAONE8OMEaG9w7iNx5ADgupqo0iKf9wT9ldNjCfJiFkJOLJ_3v8zHt3C5neA_S5jGju7DfiuJDLHM4mm1Jxt2eMRVavKT9StrN6bUw7263ivcNFVVMRuiikpwAilIzYTVbsymaytyXsOxfwnV]--></g></svg>