<?xml version="1.0" encoding="UTF-8" standalone="no"?>
<!DOCTYPE svg PUBLIC "-//W3C//DTD SVG 1.1//EN"
 "http://www.w3.org/Graphics/SVG/1.1/DTD/svg11.dtd">
<!-- Generated by graphviz version 2.38.0 (20140413.2041)
 -->
<!-- Title: G Pages: 1 -->
<svg width="580pt" height="320pt"
 viewBox="0.00 0.00 580.00 320.00" xmlns="http://www.w3.org/2000/svg" xmlns:xlink="http://www.w3.org/1999/xlink">
<g id="graph0" class="graph" transform="scale(1 1) rotate(0) translate(4 316)">
<title>G</title>
<polygon fill="white" stroke="none" points="-4,4 -4,-316 576,-316 576,4 -4,4"/>
<g id="clust1" class="cluster"><title>cluster1</title>
<polygon fill="none" stroke="blue" points="8,-8 8,-99 564,-99 564,-8 8,-8"/>
</g>
<g id="clust2" class="cluster"><title>cluster11</title>
<polygon fill="none" stroke="blue" points="376,-16 376,-91 556,-91 556,-16 376,-16"/>
<text text-anchor="middle" x="466" y="-75.8" font-family="Times,serif" font-size="14.00">PHP 7.x</text>
</g>
<g id="clust3" class="cluster"><title>cluster12</title>
<polygon fill="none" stroke="blue" points="16,-16 16,-91 368,-91 368,-16 16,-16"/>
<text text-anchor="middle" x="192" y="-75.8" font-family="Times,serif" font-size="14.00">PHP 5.x</text>
</g>
<g id="clust4" class="cluster"><title>cluster2</title>
<polygon fill="none" stroke="green" points="40,-107 40,-221 510,-221 510,-107 40,-107"/>
<text text-anchor="middle" x="275" y="-205.8" font-family="Times,serif" font-size="14.00">phpsap/interfaces</text>
</g>
<g id="clust5" class="cluster"><title>cluster21</title>
<polygon fill="none" stroke="green" points="48,-115 48,-190 502,-190 502,-115 48,-115"/>
<text text-anchor="middle" x="275" y="-174.8" font-family="Times,serif" font-size="14.00">phpsap/common</text>
</g>
<g id="clust6" class="cluster"><title>cluster3</title>
<polygon fill="none" stroke="red" points="60,-229 60,-304 390,-304 390,-229 60,-229"/>
<text text-anchor="middle" x="225" y="-288.8" font-family="Times,serif" font-size="14.00">your code</text>
</g>
<!-- sapnwrfc7 -->
<g id="node1" class="node"><title>sapnwrfc7</title>
<polygon fill="none" stroke="blue" points="548,-60 384,-60 384,-24 548,-24 548,-60"/>
<text text-anchor="middle" x="466" y="-38.3" font-family="Times,serif" font-size="14.00">sapnwrfc by Gregor Kralik</text>
</g>
<!-- sapnwrfc5 -->
<g id="node2" class="node"><title>sapnwrfc5</title>
<polygon fill="none" stroke="blue" points="360,-60 198,-60 198,-24 360,-24 360,-60"/>
<text text-anchor="middle" x="279" y="-38.3" font-family="Times,serif" font-size="14.00">sapnwrfc by Piers Harding</text>
</g>
<!-- saprfc -->
<g id="node3" class="node"><title>saprfc</title>
<polygon fill="none" stroke="blue" points="180,-60 24,-60 24,-24 180,-24 180,-60"/>
<text text-anchor="middle" x="102" y="-38.3" font-family="Times,serif" font-size="14.00">saprfc by Eduard Koucky</text>
</g>
<!-- phpsap/saprfc&#45;koucky -->
<g id="node4" class="node"><title>phpsap/saprfc&#45;koucky</title>
<polygon fill="none" stroke="green" points="192,-159 56,-159 56,-123 192,-123 192,-159"/>
<text text-anchor="middle" x="124" y="-137.3" font-family="Times,serif" font-size="14.00">phpsap/saprfc&#45;koucky</text>
</g>
<!-- phpsap/saprfc&#45;koucky&#45;&gt;saprfc -->
<g id="edge1" class="edge"><title>phpsap/saprfc&#45;koucky&#45;&gt;saprfc</title>
<path fill="none" stroke="green" d="M118,-122.842C118,-122.842 118,-70.043 118,-70.043"/>
<polygon fill="green" stroke="green" points="121.5,-70.043 118,-60.043 114.5,-70.043 121.5,-70.043"/>
</g>
<!-- phpsap/saprfc&#45;harding -->
<g id="node5" class="node"><title>phpsap/saprfc&#45;harding</title>
<polygon fill="none" stroke="green" points="347.5,-159 210.5,-159 210.5,-123 347.5,-123 347.5,-159"/>
<text text-anchor="middle" x="279" y="-137.3" font-family="Times,serif" font-size="14.00">phpsap/saprfc&#45;harding</text>
</g>
<!-- phpsap/saprfc&#45;harding&#45;&gt;sapnwrfc5 -->
<g id="edge2" class="edge"><title>phpsap/saprfc&#45;harding&#45;&gt;sapnwrfc5</title>
<path fill="none" stroke="green" d="M279,-122.842C279,-122.842 279,-70.043 279,-70.043"/>
<polygon fill="green" stroke="green" points="282.5,-70.043 279,-60.043 275.5,-70.043 282.5,-70.043"/>
</g>
<!-- phpsap/saprfc&#45;kralik -->
<g id="node6" class="node"><title>phpsap/saprfc&#45;kralik</title>
<polygon fill="none" stroke="green" points="494,-159 366,-159 366,-123 494,-123 494,-159"/>
<text text-anchor="middle" x="430" y="-137.3" font-family="Times,serif" font-size="14.00">phpsap/saprfc&#45;kralik</text>
</g>
<!-- phpsap/saprfc&#45;kralik&#45;&gt;sapnwrfc7 -->
<g id="edge3" class="edge"><title>phpsap/saprfc&#45;kralik&#45;&gt;sapnwrfc7</title>
<path fill="none" stroke="green" d="M439,-122.842C439,-122.842 439,-70.043 439,-70.043"/>
<polygon fill="green" stroke="green" points="442.5,-70.043 439,-60.043 435.5,-70.043 442.5,-70.043"/>
</g>
<!-- yourcode1 -->
<g id="node7" class="node"><title>yourcode1</title>
<polygon fill="none" stroke="red" points="229.5,-273 68.5,-273 68.5,-237 229.5,-237 229.5,-273"/>
<text text-anchor="middle" x="149" y="-251.3" font-family="Times,serif" font-size="14.00">connect&#45;&gt;prepare&#45;&gt;invoke</text>
</g>
<!-- yourcode1&#45;&gt;phpsap/saprfc&#45;koucky -->
<g id="edge4" class="edge"><title>yourcode1&#45;&gt;phpsap/saprfc&#45;koucky</title>
<path fill="none" stroke="red" d="M130.25,-236.936C130.25,-236.936 130.25,-234.619 130.25,-230.842"/>
<polygon fill="red" stroke="red" points="133.75,-230.577 130.25,-220.577 126.75,-230.577 133.75,-230.577"/>
</g>
<!-- yourcode2 -->
<g id="node8" class="node"><title>yourcode2</title>
<polygon fill="none" stroke="red" points="310,-273 248,-273 248,-237 310,-237 310,-273"/>
<text text-anchor="middle" x="279" y="-251.3" font-family="Times,serif" font-size="14.00">function</text>
</g>
<!-- yourcode2&#45;&gt;phpsap/saprfc&#45;harding -->
<g id="edge5" class="edge"><title>yourcode2&#45;&gt;phpsap/saprfc&#45;harding</title>
<path fill="none" stroke="red" d="M279,-236.936C279,-236.936 279,-234.619 279,-230.842"/>
<polygon fill="red" stroke="red" points="282.5,-230.577 279,-220.577 275.5,-230.577 282.5,-230.577"/>
</g>
<!-- yourcode3 -->
<g id="node9" class="node"><title>yourcode3</title>
<polygon fill="none" stroke="red" points="382,-273 328,-273 328,-237 382,-237 382,-273"/>
<text text-anchor="middle" x="355" y="-251.3" font-family="Times,serif" font-size="14.00">...</text>
</g>
<!-- yourcode3&#45;&gt;phpsap/saprfc&#45;kralik -->
<g id="edge6" class="edge"><title>yourcode3&#45;&gt;phpsap/saprfc&#45;kralik</title>
<path fill="none" stroke="red" d="M374,-236.936C374,-236.936 374,-234.619 374,-230.842"/>
<polygon fill="red" stroke="red" points="377.5,-230.577 374,-220.577 370.5,-230.577 377.5,-230.577"/>
</g>
</g>
</svg>
