<?xml version="1.0" encoding="UTF-8" standalone="no"?>
<!DOCTYPE svg PUBLIC "-//W3C//DTD SVG 1.1//EN"
 "http://www.w3.org/Graphics/SVG/1.1/DTD/svg11.dtd">
<!-- Generated by graphviz version 2.38.0 (20140413.2041)
 -->
<!-- Title: G Pages: 1 -->
<svg width="580pt" height="320pt"
 viewBox="0.00 0.00 580.00 320.00" xmlns="http://www.w3.org/2000/svg" xmlns:xlink="http://www.w3.org/1999/xlink">
<g id="graph0" class="graph" transform="scale(1 1) rotate(0) translate(4 316)">
<title>G</title>
<polygon fill="white" stroke="none" points="-4,4 -4,-316 576,-316 576,4 -4,4"/>
<g id="clust1" class="cluster"><title>cluster1</title>
<polygon fill="none" stroke="blue" points="8,-8 8,-99 564,-99 564,-8 8,-8"/>
</g>
<g id="clust2" class="cluster"><title>cluster11</title>
<polygon fill="none" stroke="blue" points="376,-16 376,-91 556,-91 556,-16 376,-16"/>
<text text-anchor="middle" x="466" y="-75.8" font-family="Times,serif" font-size="14.00">PHP 7.x</text>
</g>
<g id="clust3" class="cluster"><title>cluster12</title>
<polygon fill="none" stroke="blue" points="16,-16 16,-91 368,-91 368,-16 16,-16"/>
<text text-anchor="middle" x="192" y="-75.8" font-family="Times,serif" font-size="14.00">PHP 5.x</text>
</g>
<g id="clust4" class="cluster"><title>cluster2</title>
<polygon fill="none" stroke="green" points="34,-107 34,-221 516,-221 516,-107 34,-107"/>
<text text-anchor="middle" x="275" y="-205.8" font-family="Times,serif" font-size="14.00">php&#45;sap/interfaces</text>
</g>
<g id="clust5" class="cluster"><title>cluster21</title>
<polygon fill="none" stroke="green" points="42,-115 42,-190 508,-190 508,-115 42,-115"/>
<text text-anchor="middle" x="275" y="-174.8" font-family="Times,serif" font-size="14.00">php&#45;sap/common</text>
</g>
<g id="clust6" class="cluster"><title>cluster3</title>
<polygon fill="none" stroke="red" points="69,-229 69,-304 513,-304 513,-229 69,-229"/>
<text text-anchor="middle" x="291" y="-288.8" font-family="Times,serif" font-size="14.00">your code</text>
</g>
<!-- sapnwrfc7 -->
<g id="node1" class="node"><title>sapnwrfc7</title>
<polygon fill="none" stroke="blue" points="548,-60 384,-60 384,-24 548,-24 548,-60"/>
<text text-anchor="middle" x="466" y="-38.3" font-family="Times,serif" font-size="14.00">sapnwrfc by Gregor Kralik</text>
</g>
<!-- sapnwrfc5 -->
<g id="node2" class="node"><title>sapnwrfc5</title>
<polygon fill="none" stroke="blue" points="360,-60 198,-60 198,-24 360,-24 360,-60"/>
<text text-anchor="middle" x="279" y="-38.3" font-family="Times,serif" font-size="14.00">sapnwrfc by Piers Harding</text>
</g>
<!-- saprfc -->
<g id="node3" class="node"><title>saprfc</title>
<polygon fill="none" stroke="blue" points="180,-60 24,-60 24,-24 180,-24 180,-60"/>
<text text-anchor="middle" x="102" y="-38.3" font-family="Times,serif" font-size="14.00">saprfc by Eduard Koucky</text>
</g>
<!-- php&#45;sap/saprfc&#45;koucky -->
<g id="node4" class="node"><title>php&#45;sap/saprfc&#45;koucky</title>
<polygon fill="none" stroke="green" points="190,-159 50,-159 50,-123 190,-123 190,-159"/>
<text text-anchor="middle" x="120" y="-137.3" font-family="Times,serif" font-size="14.00">php&#45;sap/saprfc&#45;koucky</text>
</g>
<!-- php&#45;sap/saprfc&#45;koucky&#45;&gt;saprfc -->
<g id="edge1" class="edge"><title>php&#45;sap/saprfc&#45;koucky&#45;&gt;saprfc</title>
<path fill="none" stroke="green" d="M115,-122.842C115,-122.842 115,-70.043 115,-70.043"/>
<polygon fill="green" stroke="green" points="118.5,-70.043 115,-60.043 111.5,-70.043 118.5,-70.043"/>
</g>
<!-- php&#45;sap/saprfc&#45;harding -->
<g id="node5" class="node"><title>php&#45;sap/saprfc&#45;harding</title>
<polygon fill="none" stroke="green" points="350,-159 208,-159 208,-123 350,-123 350,-159"/>
<text text-anchor="middle" x="279" y="-137.3" font-family="Times,serif" font-size="14.00">php&#45;sap/saprfc&#45;harding</text>
</g>
<!-- php&#45;sap/saprfc&#45;harding&#45;&gt;sapnwrfc5 -->
<g id="edge2" class="edge"><title>php&#45;sap/saprfc&#45;harding&#45;&gt;sapnwrfc5</title>
<path fill="none" stroke="green" d="M279,-122.842C279,-122.842 279,-70.043 279,-70.043"/>
<polygon fill="green" stroke="green" points="282.5,-70.043 279,-60.043 275.5,-70.043 282.5,-70.043"/>
</g>
<!-- php&#45;sap/saprfc&#45;kralik -->
<g id="node6" class="node"><title>php&#45;sap/saprfc&#45;kralik</title>
<polygon fill="none" stroke="green" points="500,-159 368,-159 368,-123 500,-123 500,-159"/>
<text text-anchor="middle" x="434" y="-137.3" font-family="Times,serif" font-size="14.00">php&#45;sap/saprfc&#45;kralik</text>
</g>
<!-- php&#45;sap/saprfc&#45;kralik&#45;&gt;sapnwrfc7 -->
<g id="edge3" class="edge"><title>php&#45;sap/saprfc&#45;kralik&#45;&gt;sapnwrfc7</title>
<path fill="none" stroke="green" d="M442,-122.842C442,-122.842 442,-70.043 442,-70.043"/>
<polygon fill="green" stroke="green" points="445.5,-70.043 442,-60.043 438.5,-70.043 445.5,-70.043"/>
</g>
<!-- yourcode1 -->
<g id="node7" class="node"><title>yourcode1</title>
<polygon fill="none" stroke="red" points="253,-273 77,-273 77,-237 253,-237 253,-273"/>
<text text-anchor="middle" x="165" y="-251.3" font-family="Times,serif" font-size="14.00">connect ➔ prepare ➔ invoke</text>
</g>
<!-- yourcode1&#45;&gt;php&#45;sap/saprfc&#45;koucky -->
<g id="edge4" class="edge"><title>yourcode1&#45;&gt;php&#45;sap/saprfc&#45;koucky</title>
<path fill="none" stroke="red" d="M133.5,-236.936C133.5,-236.936 133.5,-234.619 133.5,-230.842"/>
<polygon fill="red" stroke="red" points="137,-230.577 133.5,-220.577 130,-230.577 137,-230.577"/>
</g>
<!-- yourcode2 -->
<g id="node8" class="node"><title>yourcode2</title>
<polygon fill="none" stroke="red" points="504.5,-273 271.5,-273 271.5,-237 504.5,-237 504.5,-273"/>
<text text-anchor="middle" x="388" y="-251.3" font-family="Times,serif" font-size="14.00">extending AbstractRemoteFunctionCall</text>
</g>
<!-- yourcode2&#45;&gt;php&#45;sap/saprfc&#45;kralik -->
<g id="edge5" class="edge"><title>yourcode2&#45;&gt;php&#45;sap/saprfc&#45;kralik</title>
<path fill="none" stroke="red" d="M434,-236.936C434,-236.936 434,-234.619 434,-230.842"/>
<polygon fill="red" stroke="red" points="437.5,-230.577 434,-220.577 430.5,-230.577 437.5,-230.577"/>
</g>
</g>
</svg>
