<?xml version="1.0" encoding="UTF-8" standalone="no"?>
<!DOCTYPE svg PUBLIC "-//W3C//DTD SVG 1.1//EN" "http://www.w3.org/Graphics/SVG/1.1/DTD/svg11.dtd">
<!-- Generated by graphviz version 2.38.0 (20140413.2041)
 -->
<!-- Title: G Pages: 1 -->
<svg width="580pt" height="320pt" viewBox="0.00 0.00 580.00 320.00" xmlns="http://www.w3.org/2000/svg" xmlns:xlink="http://www.w3.org/1999/xlink">
<g id="graph0" class="graph" transform="scale(1 1) rotate(0) translate(4 316)">
<title>G</title>
<polygon fill="white" stroke="none" points="-4,4 -4,-316 576,-316 576,4 -4,4"/>
<g id="clust1" class="cluster"><title>cluster1</title>
<polygon fill="none" stroke="blue" points="8,-8 8,-99 564,-99 564,-8 8,-8"/>
</g>
<g id="clust2" class="cluster"><title>cluster11</title>
<polygon fill="none" stroke="blue" points="376,-16 376,-91 556,-91 556,-16 376,-16"/>
<text text-anchor="middle" x="466" y="-75.8" font-family="Times,serif" font-size="14.00">PHP 7.x</text>
</g>
<g id="clust3" class="cluster"><title>cluster12</title>
<polygon fill="none" stroke="blue" points="16,-16 16,-91 368,-91 368,-16 16,-16"/>
<text text-anchor="middle" x="192" y="-75.8" font-family="Times,serif" font-size="14.00">PHP 5.x</text>
</g>
<g id="clust4" class="cluster"><title>cluster2</title>
<polygon fill="none" stroke="green" points="34,-107 34,-221 516,-221 516,-107 34,-107"/>
<text text-anchor="middle" x="275" y="-205.8" font-family="Times,serif" font-size="14.00">php-sap/interfaces</text>
</g>
<g id="clust5" class="cluster"><title>cluster21</title>
<polygon fill="none" stroke="green" points="42,-115 42,-190 508,-190 508,-115 42,-115"/>
<text text-anchor="middle" x="275" y="-174.8" font-family="Times,serif" font-size="14.00">php-sap/common</text>
</g>
<g id="clust6" class="cluster"><title>cluster3</title>
<polygon fill="none" stroke="red" points="60,-229 60,-304 390,-304 390,-229 60,-229"/>
<text text-anchor="middle" x="225" y="-288.8" font-family="Times,serif" font-size="14.00">your code</text>
</g>
<!-- sapnwrfc7 -->
<g id="node1" class="node"><title>sapnwrfc7</title>
<polygon fill="none" stroke="blue" points="548,-60 384,-60 384,-24 548,-24 548,-60"/>
<text text-anchor="middle" x="466" y="-38.3" font-family="Times,serif" font-size="14.00">sapnwrfc by Gregor Kralik</text>
</g>
<!-- sapnwrfc5 -->
<g id="node2" class="node"><title>sapnwrfc5</title>
<polygon fill="none" stroke="blue" points="360,-60 198,-60 198,-24 360,-24 360,-60"/>
<text text-anchor="middle" x="279" y="-38.3" font-family="Times,serif" font-size="14.00">sapnwrfc by Piers Harding</text>
</g>
<!-- saprfc -->
<g id="node3" class="node"><title>saprfc</title>
<polygon fill="none" stroke="blue" points="180,-60 24,-60 24,-24 180,-24 180,-60"/>
<text text-anchor="middle" x="102" y="-38.3" font-family="Times,serif" font-size="14.00">saprfc by Eduard Koucky</text>
</g>
<!-- php&#45;sap/saprfc&#45;koucky -->
<g id="node4" class="node"><title>php-sap/saprfc-koucky</title>
<polygon fill="none" stroke="green" points="190,-159 50,-159 50,-123 190,-123 190,-159"/>
<text text-anchor="middle" x="120" y="-137.3" font-family="Times,serif" font-size="14.00">php-sap/saprfc-koucky</text>
</g>
<!-- php&#45;sap/saprfc&#45;koucky&#45;&gt;saprfc -->
<g id="edge1" class="edge"><title>php-sap/saprfc-koucky-&gt;saprfc</title>
<path fill="none" stroke="green" d="M115,-122.842C115,-122.842 115,-70.043 115,-70.043"/>
<polygon fill="green" stroke="green" points="118.5,-70.043 115,-60.043 111.5,-70.043 118.5,-70.043"/>
</g>
<!-- php&#45;sap/saprfc&#45;harding -->
<g id="node5" class="node"><title>php-sap/saprfc-harding</title>
<polygon fill="none" stroke="green" points="350,-159 208,-159 208,-123 350,-123 350,-159"/>
<text text-anchor="middle" x="279" y="-137.3" font-family="Times,serif" font-size="14.00">php-sap/saprfc-harding</text>
</g>
<!-- php&#45;sap/saprfc&#45;harding&#45;&gt;sapnwrfc5 -->
<g id="edge2" class="edge"><title>php-sap/saprfc-harding-&gt;sapnwrfc5</title>
<path fill="none" stroke="green" d="M279,-122.842C279,-122.842 279,-70.043 279,-70.043"/>
<polygon fill="green" stroke="green" points="282.5,-70.043 279,-60.043 275.5,-70.043 282.5,-70.043"/>
</g>
<!-- php&#45;sap/saprfc&#45;kralik -->
<g id="node6" class="node"><title>php-sap/saprfc-kralik</title>
<polygon fill="none" stroke="green" points="500,-159 368,-159 368,-123 500,-123 500,-159"/>
<text text-anchor="middle" x="434" y="-137.3" font-family="Times,serif" font-size="14.00">php-sap/saprfc-kralik</text>
</g>
<!-- php&#45;sap/saprfc&#45;kralik&#45;&gt;sapnwrfc7 -->
<g id="edge3" class="edge"><title>php-sap/saprfc-kralik-&gt;sapnwrfc7</title>
<path fill="none" stroke="green" d="M442,-122.842C442,-122.842 442,-70.043 442,-70.043"/>
<polygon fill="green" stroke="green" points="445.5,-70.043 442,-60.043 438.5,-70.043 445.5,-70.043"/>
</g>
<!-- yourcode1 -->
<g id="node7" class="node"><title>yourcode1</title>
<polygon fill="none" stroke="red" points="229.5,-273 68.5,-273 68.5,-237 229.5,-237 229.5,-273"/>
<text text-anchor="middle" x="149" y="-251.3" font-family="Times,serif" font-size="14.00">connect-&gt;prepare-&gt;invoke</text>
</g>
<!-- yourcode1&#45;&gt;php&#45;sap/saprfc&#45;koucky -->
<g id="edge4" class="edge"><title>yourcode1-&gt;php-sap/saprfc-koucky</title>
<path fill="none" stroke="red" d="M129.25,-236.936C129.25,-236.936 129.25,-234.619 129.25,-230.842"/>
<polygon fill="red" stroke="red" points="132.75,-230.577 129.25,-220.577 125.75,-230.577 132.75,-230.577"/>
</g>
<!-- yourcode2 -->
<g id="node8" class="node"><title>yourcode2</title>
<polygon fill="none" stroke="red" points="310,-273 248,-273 248,-237 310,-237 310,-273"/>
<text text-anchor="middle" x="279" y="-251.3" font-family="Times,serif" font-size="14.00">function</text>
</g>
<!-- yourcode2&#45;&gt;php&#45;sap/saprfc&#45;harding -->
<g id="edge5" class="edge"><title>yourcode2-&gt;php-sap/saprfc-harding</title>
<path fill="none" stroke="red" d="M279,-236.936C279,-236.936 279,-234.619 279,-230.842"/>
<polygon fill="red" stroke="red" points="282.5,-230.577 279,-220.577 275.5,-230.577 282.5,-230.577"/>
</g>
<!-- yourcode3 -->
<g id="node9" class="node"><title>yourcode3</title>
<polygon fill="none" stroke="red" points="382,-273 328,-273 328,-237 382,-237 382,-273"/>
<text text-anchor="middle" x="355" y="-251.3" font-family="Times,serif" font-size="14.00">...</text>
</g>
<!-- yourcode3&#45;&gt;php&#45;sap/saprfc&#45;kralik -->
<g id="edge6" class="edge"><title>yourcode3-&gt;php-sap/saprfc-kralik</title>
<path fill="none" stroke="red" d="M375,-236.936C375,-236.936 375,-234.619 375,-230.842"/>
<polygon fill="red" stroke="red" points="378.5,-230.577 375,-220.577 371.5,-230.577 378.5,-230.577"/>
</g>
</g>
</svg>