<?xml version="1.0" encoding="UTF-8" standalone="no"?>
<!DOCTYPE svg PUBLIC "-//W3C//DTD SVG 1.1//EN"
 "http://www.w3.org/Graphics/SVG/1.1/DTD/svg11.dtd">
<!-- Generated by graphviz version 2.38.0 (20140413.2041)
 -->
<!-- Title: G Pages: 1 -->
<svg width="516pt" height="320pt"
 viewBox="0.00 0.00 516.00 320.00" xmlns="http://www.w3.org/2000/svg" xmlns:xlink="http://www.w3.org/1999/xlink">
<g id="graph0" class="graph" transform="scale(1 1) rotate(0) translate(4 316)">
<title>G</title>
<polygon fill="white" stroke="none" points="-4,4 -4,-316 512,-316 512,4 -4,4"/>
<g id="clust1" class="cluster"><title>cluster1</title>
<polygon fill="none" stroke="blue" points="44,-8 44,-99 498,-99 498,-8 44,-8"/>
</g>
<g id="clust2" class="cluster"><title>cluster11</title>
<polygon fill="none" stroke="blue" points="346,-16 346,-91 490,-91 490,-16 346,-16"/>
<text text-anchor="middle" x="418" y="-75.8" font-family="Times,serif" font-size="14.00">PHP 7.x</text>
</g>
<g id="clust3" class="cluster"><title>cluster12</title>
<polygon fill="none" stroke="blue" points="52,-16 52,-91 338,-91 338,-16 52,-16"/>
<text text-anchor="middle" x="195" y="-75.8" font-family="Times,serif" font-size="14.00">PHP 5.x</text>
</g>
<g id="clust4" class="cluster"><title>cluster2</title>
<polygon fill="none" stroke="green" points="18,-107 18,-221 500,-221 500,-107 18,-107"/>
<text text-anchor="middle" x="259" y="-205.8" font-family="Times,serif" font-size="14.00">php&#45;sap/interfaces</text>
</g>
<g id="clust5" class="cluster"><title>cluster21</title>
<polygon fill="none" stroke="green" points="26,-115 26,-190 492,-190 492,-115 26,-115"/>
<text text-anchor="middle" x="259" y="-174.8" font-family="Times,serif" font-size="14.00">php&#45;sap/common</text>
</g>
<g id="clust6" class="cluster"><title>cluster3</title>
<polygon fill="none" stroke="red" points="8,-229 8,-304 200,-304 200,-229 8,-229"/>
<text text-anchor="middle" x="104" y="-288.8" font-family="Times,serif" font-size="14.00">your code</text>
</g>
<!-- sapnwrfc7 -->
<g id="node1" class="node"><title>sapnwrfc7</title>
<polygon fill="none" stroke="blue" points="481.5,-60 354.5,-60 354.5,-24 481.5,-24 481.5,-60"/>
<text text-anchor="middle" x="418" y="-38.3" font-family="Times,serif" font-size="14.00">G. Kraliks sapnwrfc</text>
</g>
<!-- sapnwrfc5 -->
<g id="node2" class="node"><title>sapnwrfc5</title>
<polygon fill="none" stroke="blue" points="330,-60 196,-60 196,-24 330,-24 330,-60"/>
<text text-anchor="middle" x="263" y="-38.3" font-family="Times,serif" font-size="14.00">P. Hardings sapnwrfc</text>
</g>
<!-- saprfc -->
<g id="node3" class="node"><title>saprfc</title>
<polygon fill="none" stroke="blue" points="177.5,-60 60.5,-60 60.5,-24 177.5,-24 177.5,-60"/>
<text text-anchor="middle" x="119" y="-38.3" font-family="Times,serif" font-size="14.00">E. Kouckys saprfc</text>
</g>
<!-- php&#45;sap/saprfc&#45;koucky -->
<g id="node4" class="node"><title>php&#45;sap/saprfc&#45;koucky</title>
<polygon fill="none" stroke="green" points="174,-159 34,-159 34,-123 174,-123 174,-159"/>
<text text-anchor="middle" x="104" y="-137.3" font-family="Times,serif" font-size="14.00">php&#45;sap/saprfc&#45;koucky</text>
</g>
<!-- php&#45;sap/saprfc&#45;koucky&#45;&gt;saprfc -->
<g id="edge1" class="edge"><title>php&#45;sap/saprfc&#45;koucky&#45;&gt;saprfc</title>
<path fill="none" stroke="green" d="M117.25,-122.842C117.25,-122.842 117.25,-70.043 117.25,-70.043"/>
<polygon fill="green" stroke="green" points="120.75,-70.043 117.25,-60.043 113.75,-70.043 120.75,-70.043"/>
</g>
<!-- php&#45;sap/saprfc&#45;harding -->
<g id="node5" class="node"><title>php&#45;sap/saprfc&#45;harding</title>
<polygon fill="none" stroke="green" points="334,-159 192,-159 192,-123 334,-123 334,-159"/>
<text text-anchor="middle" x="263" y="-137.3" font-family="Times,serif" font-size="14.00">php&#45;sap/saprfc&#45;harding</text>
</g>
<!-- php&#45;sap/saprfc&#45;harding&#45;&gt;sapnwrfc5 -->
<g id="edge2" class="edge"><title>php&#45;sap/saprfc&#45;harding&#45;&gt;sapnwrfc5</title>
<path fill="none" stroke="green" d="M263,-122.842C263,-122.842 263,-70.043 263,-70.043"/>
<polygon fill="green" stroke="green" points="266.5,-70.043 263,-60.043 259.5,-70.043 266.5,-70.043"/>
</g>
<!-- php&#45;sap/saprfc&#45;kralik -->
<g id="node6" class="node"><title>php&#45;sap/saprfc&#45;kralik</title>
<polygon fill="none" stroke="green" points="484,-159 352,-159 352,-123 484,-123 484,-159"/>
<text text-anchor="middle" x="418" y="-137.3" font-family="Times,serif" font-size="14.00">php&#45;sap/saprfc&#45;kralik</text>
</g>
<!-- php&#45;sap/saprfc&#45;kralik&#45;&gt;sapnwrfc7 -->
<g id="edge3" class="edge"><title>php&#45;sap/saprfc&#45;kralik&#45;&gt;sapnwrfc7</title>
<path fill="none" stroke="green" d="M418,-122.842C418,-122.842 418,-70.043 418,-70.043"/>
<polygon fill="green" stroke="green" points="421.5,-70.043 418,-60.043 414.5,-70.043 421.5,-70.043"/>
</g>
<!-- yourcode -->
<g id="node7" class="node"><title>yourcode</title>
<polygon fill="none" stroke="red" points="192,-273 16,-273 16,-237 192,-237 192,-273"/>
<text text-anchor="middle" x="104" y="-251.3" font-family="Times,serif" font-size="14.00">connect ➔ prepare ➔ invoke</text>
</g>
<!-- yourcode&#45;&gt;php&#45;sap/saprfc&#45;koucky -->
<g id="edge4" class="edge"><title>yourcode&#45;&gt;php&#45;sap/saprfc&#45;koucky</title>
<path fill="none" stroke="red" d="M104,-236.936C104,-236.936 104,-234.619 104,-230.842"/>
<polygon fill="red" stroke="red" points="107.5,-230.577 104,-220.577 100.5,-230.577 107.5,-230.577"/>
</g>
</g>
</svg>
