<?xml version="1.0" encoding="UTF-8" standalone="no"?>
<!DOCTYPE svg PUBLIC "-//W3C//DTD SVG 1.1//EN" "http://www.w3.org/Graphics/SVG/1.1/DTD/svg11.dtd">
<!-- Generated by graphviz version 2.38.0 (20140413.2041)
 -->
<!-- Title: G Pages: 1 -->
<svg width="580pt" height="392pt" viewBox="0.00 0.00 580.00 392.00" xmlns="http://www.w3.org/2000/svg" xmlns:xlink="http://www.w3.org/1999/xlink">
<g id="graph0" class="graph" transform="scale(1 1) rotate(0) translate(4 388)">
<title>G</title>
<polygon fill="white" stroke="none" points="-4,4 -4,-388 576,-388 576,4 -4,4"/>
<g id="clust1" class="cluster"><title>cluster1</title>
<polygon fill="none" stroke="blue" points="8,-8 8,-99 564,-99 564,-8 8,-8"/>
</g>
<g id="clust2" class="cluster"><title>cluster11</title>
<polygon fill="none" stroke="blue" points="376,-16 376,-91 556,-91 556,-16 376,-16"/>
<text text-anchor="middle" x="466" y="-75.8" font-family="Times,serif" font-size="14.00">PHP 7.x</text>
</g>
<g id="clust3" class="cluster"><title>cluster12</title>
<polygon fill="none" stroke="blue" points="16,-16 16,-91 368,-91 368,-16 16,-16"/>
<text text-anchor="middle" x="192" y="-75.8" font-family="Times,serif" font-size="14.00">PHP 5.x</text>
</g>
<g id="clust4" class="cluster"><title>cluster2</title>
<polygon fill="none" stroke="green" points="36,-107 36,-221 518,-221 518,-107 36,-107"/>
<text text-anchor="middle" x="277" y="-205.8" font-family="Times,serif" font-size="14.00">php-sap/interfaces</text>
</g>
<g id="clust5" class="cluster"><title>cluster21</title>
<polygon fill="none" stroke="green" points="44,-115 44,-190 510,-190 510,-115 44,-115"/>
<text text-anchor="middle" x="277" y="-174.8" font-family="Times,serif" font-size="14.00">php-sap/common</text>
</g>
<g id="clust6" class="cluster"><title>cluster3</title>
<polygon fill="none" stroke="red" points="48,-229 48,-376 334,-376 334,-229 48,-229"/>
<text text-anchor="middle" x="191" y="-360.8" font-family="Times,serif" font-size="14.00">your code</text>
</g>
<!-- sapnwrfc7 -->
<g id="node1" class="node"><title>sapnwrfc7</title>
<polygon fill="none" stroke="blue" points="548,-60 384,-60 384,-24 548,-24 548,-60"/>
<text text-anchor="middle" x="466" y="-38.3" font-family="Times,serif" font-size="14.00">sapnwrfc by Gregor Kralik</text>
</g>
<!-- sapnwrfc5 -->
<g id="node2" class="node"><title>sapnwrfc5</title>
<polygon fill="none" stroke="blue" points="186,-60 24,-60 24,-24 186,-24 186,-60"/>
<text text-anchor="middle" x="105" y="-38.3" font-family="Times,serif" font-size="14.00">sapnwrfc by Piers Harding</text>
</g>
<!-- saprfc -->
<g id="node3" class="node"><title>saprfc</title>
<polygon fill="none" stroke="blue" points="360,-60 204,-60 204,-24 360,-24 360,-60"/>
<text text-anchor="middle" x="282" y="-38.3" font-family="Times,serif" font-size="14.00">saprfc by Eduard Koucky</text>
</g>
<!-- php&#45;sap/saprfc&#45;koucky -->
<g id="node4" class="node"><title>php-sap/saprfc-koucky</title>
<polygon fill="none" stroke="green" points="352,-159 212,-159 212,-123 352,-123 352,-159"/>
<text text-anchor="middle" x="282" y="-137.3" font-family="Times,serif" font-size="14.00">php-sap/saprfc-koucky</text>
</g>
<!-- php&#45;sap/saprfc&#45;koucky&#45;&gt;saprfc -->
<g id="edge1" class="edge"><title>php-sap/saprfc-koucky-&gt;saprfc</title>
<path fill="none" stroke="green" d="M282,-122.842C282,-122.842 282,-70.043 282,-70.043"/>
<polygon fill="green" stroke="green" points="285.5,-70.043 282,-60.043 278.5,-70.043 285.5,-70.043"/>
</g>
<!-- php&#45;sap/saprfc&#45;harding -->
<g id="node5" class="node"><title>php-sap/saprfc-harding</title>
<polygon fill="none" stroke="green" points="194,-159 52,-159 52,-123 194,-123 194,-159"/>
<text text-anchor="middle" x="123" y="-137.3" font-family="Times,serif" font-size="14.00">php-sap/saprfc-harding</text>
</g>
<!-- php&#45;sap/saprfc&#45;harding&#45;&gt;sapnwrfc5 -->
<g id="edge2" class="edge"><title>php-sap/saprfc-harding-&gt;sapnwrfc5</title>
<path fill="none" stroke="green" d="M119,-122.842C119,-122.842 119,-70.043 119,-70.043"/>
<polygon fill="green" stroke="green" points="122.5,-70.043 119,-60.043 115.5,-70.043 122.5,-70.043"/>
</g>
<!-- php&#45;sap/saprfc&#45;kralik -->
<g id="node6" class="node"><title>php-sap/saprfc-kralik</title>
<polygon fill="none" stroke="green" points="502,-159 370,-159 370,-123 502,-123 502,-159"/>
<text text-anchor="middle" x="436" y="-137.3" font-family="Times,serif" font-size="14.00">php-sap/saprfc-kralik</text>
</g>
<!-- php&#45;sap/saprfc&#45;kralik&#45;&gt;sapnwrfc7 -->
<g id="edge3" class="edge"><title>php-sap/saprfc-kralik-&gt;sapnwrfc7</title>
<path fill="none" stroke="green" d="M443,-122.842C443,-122.842 443,-70.043 443,-70.043"/>
<polygon fill="green" stroke="green" points="446.5,-70.043 443,-60.043 439.5,-70.043 446.5,-70.043"/>
</g>
<!-- yourcode1 -->
<g id="node7" class="node"><title>yourcode1</title>
<polygon fill="none" stroke="red" points="326,-345 166,-345 166,-309 326,-309 326,-345"/>
<text text-anchor="middle" x="246" y="-323.3" font-family="Times,serif" font-size="14.00">connect➔prepare➔invoke</text>
</g>
<!-- yourcode1&#45;&gt;php&#45;sap/saprfc&#45;koucky -->
<g id="edge4" class="edge"><title>yourcode1-&gt;php-sap/saprfc-koucky</title>
<path fill="none" stroke="red" d="M279,-308.827C279,-308.827 279,-268.521 279,-231.228"/>
<polygon fill="red" stroke="red" points="282.5,-230.825 279,-220.825 275.5,-230.825 282.5,-230.825"/>
</g>
<!-- yourcode2 -->
<g id="node8" class="node"><title>yourcode2</title>
<polygon fill="none" stroke="red" points="232,-273 56,-273 56,-237 232,-237 232,-273"/>
<text text-anchor="middle" x="144" y="-251.3" font-family="Times,serif" font-size="14.00">AbstractRemoteFunctionCall</text>
</g>
<!-- yourcode2&#45;&gt;php&#45;sap/saprfc&#45;harding -->
<g id="edge5" class="edge"><title>yourcode2-&gt;php-sap/saprfc-harding</title>
<path fill="none" stroke="red" d="M125,-236.936C125,-236.936 125,-234.619 125,-230.842"/>
<polygon fill="red" stroke="red" points="128.5,-230.577 125,-220.577 121.5,-230.577 128.5,-230.577"/>
</g>
<!-- yourcode3 -->
<g id="node9" class="node"><title>yourcode3</title>
<polygon fill="none" stroke="red" points="148,-345 56,-345 56,-309 148,-309 148,-345"/>
<text text-anchor="middle" x="102" y="-323.3" font-family="Times,serif" font-size="14.00">YourFunction</text>
</g>
<!-- yourcode3&#45;&gt;yourcode2 -->
<g id="edge6" class="edge"><title>yourcode3-&gt;yourcode2</title>
<path fill="none" stroke="red" d="M102,-308.831C102,-308.831 102,-283.413 102,-283.413"/>
<polygon fill="red" stroke="red" points="105.5,-283.413 102,-273.413 98.5001,-283.413 105.5,-283.413"/>
</g>
</g>
</svg>